<?xml version="1.0" standalone="no"?>
<!DOCTYPE svg PUBLIC "-//W3C//DTD SVG 1.1//EN" "http://www.w3.org/Graphics/SVG/1.1/DTD/svg11.dtd" >
<!--
2013-9-30: Created.
-->
<svg>
<metadata>
Created by iconfont
</metadata>
<defs>

<font id="iconfont" horiz-adv-x="1024" >
  <font-face
    font-family="iconfont"
    font-weight="500"
    font-stretch="normal"
    units-per-em="1024"
    ascent="896"
    descent="-128"
  />
    <missing-glyph />
    
    <glyph glyph-name="fapiaoshengcheng" unicode="&#58882;" d="M624 658.176a32 32 0 0 1-32-32v-315.968a32 32 0 1 1 64 0V626.176a32 32 0 0 1-32 32zM404.032 658.176a32 32 0 0 1-32-32v-484.16a32 32 0 1 1 64 0V626.176a32 32 0 0 1-32 32zM896 896H128C57.408 896 0 838.592 0 768s57.408-128 128-128h25.984v-676.032c0-50.688 43.072-91.968 96-91.968h128a32 32 0 0 1 32 32c0 48.512 43.072 88 96 88s96-39.488 96-88a32 32 0 0 1 32-32h128c52.928 0 96 41.28 96 92.032V640H896c70.592 0 128 57.408 128 128s-57.408 128-128 128z m-134.016-960h-99.52c-15.552 68.48-79.808 120-156.48 120S365.056 4.48 349.568-64H249.984c-17.28 0-32 12.8-32 28.032V736h576v-772.032c0-15.168-14.656-27.968-32-27.968zM896 704h-38.016v32h12.352a32 32 0 1 1 0 64H143.68a32 32 0 1 1 0-64h10.304V704H128c-35.264 0-64 28.736-64 64s28.736 64 64 64h768c35.264 0 64-28.736 64-64s-28.736-64-64-64z"  horiz-adv-x="1024" />

    
    <glyph glyph-name="pipeixinxi" unicode="&#58883;" d="M512 480c-52.928 0-96-43.072-96-96S459.072 288 512 288 608 331.072 608 384 564.928 480 512 480z m0-128a32 32 0 1 0 0 64 32 32 0 0 0 0-64zM992 416h-65.6A416.128 416.128 0 0 1 544 798.4V864a32 32 0 1 1-64 0v-65.6A416.128 416.128 0 0 1 97.6 416H32a32 32 0 1 1 0-64h65.6A416.128 416.128 0 0 1 480-30.4V-96a32 32 0 1 1 64 0v65.6A416.128 416.128 0 0 1 926.4 352H992a32 32 0 1 1 0 64z m-448-382.4V96a32 32 0 1 1-64 0v-62.4A352.384 352.384 0 0 0 161.6 352H224a32 32 0 1 1 0 64h-62.4A352.384 352.384 0 0 0 480 734.4V672a32 32 0 1 1 64 0v62.4A352.384 352.384 0 0 0 862.4 416H800a32 32 0 1 1 0-64h62.4A352.384 352.384 0 0 0 544 33.6z"  horiz-adv-x="1024" />

    
    <glyph glyph-name="qianshouxinxi" unicode="&#58884;" d="M639.143882 218.223122a31.99844 31.99844 0 0 1-31.99844-31.99844v-62.460955H451.441033a31.99844 31.99844 0 0 1-31.99844-31.998441V-64.00312H96.00236a31.99844 31.99844 0 0 0-31.99844 31.99844V756.116899a31.99844 31.99844 0 0 0 31.99844 31.99844h479.144642a31.99844 31.99844 0 0 0 31.99844-31.99844 31.99844 31.99844 0 1 1 63.99688 0c0 52.989417-43.0699 95.99532-95.99532 95.995321H96.00236c-52.92542 0-95.99532-43.005903-95.99532-95.995321V-32.00468c0-52.92542 43.0699-95.99532 95.99532-95.99532h355.438673a31.99844 31.99844 0 0 1 22.654895 9.407541l187.510859 187.510859a31.678456 31.678456 0 0 1 8.703576 18.623092c0.191991 1.407931 0.831959 2.687869 0.831959 4.159798v94.459395a31.99844 31.99844 0 0 1-31.99844 31.99844z m-155.704409-236.980448v78.524172H561.899648l-78.460175-78.524172zM1014.549581 886.606538a32.062437 32.062437 0 0 1-38.398128 5.247744l-577.891828-326.000107a31.99844 31.99844 0 0 1-16.127214-24.574802L354.421762 275.180345l-115.770356-115.066391a31.99844 31.99844 0 1 1 45.117801-45.373788l115.194384 114.554416 271.154781 27.390665a31.870446 31.870446 0 0 1 24.702796 16.063217L1019.797325 848.20841a31.99844 31.99844 0 0 1-5.247744 38.398128zM444.145388 518.240496l357.614567 201.718166-375.533693-373.357799 17.919126 171.639633z m26.87869-217.333405l379.117518 376.941624-100.475102-177.911327h-48.317644a31.99844 31.99844 0 1 1 0-63.99688h12.223404l-15.80723-27.966637H598.56986a31.99844 31.99844 0 1 1 0-63.99688h62.97293l-14.271304-25.278768-176.311405-17.791132z"  horiz-adv-x="1024" />

    
    <glyph glyph-name="wuliuxinxi" unicode="&#58885;" d="M971.008 455.04c-0.192 0.768-0.128 1.6-0.384 2.368l-55.04 176.576a32 32 0 0 1-30.528 22.4h-132.544a95.808 95.808 0 0 1-90.752 66.048H150.72c-52.928 0-96-43.072-96-96v-148.032a32 32 0 1 1 64 0V626.432a32 32 0 0 0 32 32h511.04a32 32 0 0 0 32-32v-374.4a32 32 0 0 0-32-32H388.8c-20.16 33.92-56.832 56.96-99.072 56.96s-78.912-23.04-99.072-56.96h-39.936a31.616 31.616 0 0 0-31.04 27.136h49.792a32 32 0 1 1 0 64H32a32 32 0 1 1 0-64h23.232c2.56-50.624 44.16-91.136 95.488-91.136h23.872c2.816-61.312 53.12-110.464 115.136-110.464s112.32 49.152 115.2 110.464h256.832c19.392 0 37.376 5.888 52.48 15.808a59.328 59.328 0 0 1 29.312-13.696c1.664-62.336 52.608-112.64 115.328-112.64s113.664 50.304 115.392 112.64a59.584 59.584 0 0 1 49.728 58.24V396.16c0 30.72-23.36 55.04-52.992 58.88zM289.728 109.568a51.776 51.776 0 0 0 0 103.36 51.776 51.776 0 0 0 0-103.36z m569.152 167.36c-43.712 0-81.408-24.64-101.12-60.544l-0.64 29.568c0.192 2.048 0.64 4.032 0.64 6.08V392.512h158.912c5.568 0 10.624 1.6 15.616 3.2L960 396.16l3.648-176.128c-1.792 0-3.392-0.768-5.12-1.024a115.2 115.2 0 0 1-99.648 57.92z m44.992 179.584H757.76V592.448h103.744l42.368-135.936z m-44.992-346.944a51.776 51.776 0 0 0 0 103.36 51.712 51.712 0 0 0 0-103.36zM50.688 367.68h198.72a32 32 0 1 1 0 64H50.688a32 32 0 1 1 0-64zM641.28 247.168a32 32 0 1 1 0 64H414.976a32 32 0 1 1 0-64h226.432z"  horiz-adv-x="1024" />

    
    <glyph glyph-name="chayan" unicode="&#58886;" d="M270.72 586.88h322.304a32 32 0 1 1 0 64H270.72a32 32 0 1 1 0-64zM1014.592-30.848L845.44 138.24c3.968 4.352 7.552 9.024 11.2 13.632h72c50.56 0 91.776 43.008 91.776 95.808V375.232a32 32 0 0 1-32 32c-48.256 0-87.552 42.88-87.552 95.488s39.296 95.488 87.552 95.488a32 32 0 0 1 32 32V757.76c0 52.8-41.152 95.808-91.776 95.808H91.776C41.216 853.568 0 810.56 0 757.76v-127.488a32 32 0 0 1 32-32c48.32 0 87.552-42.88 87.552-95.552S80.32 407.296 32 407.296a32 32 0 0 1-32-32v-127.552c0-52.8 41.216-95.808 91.776-95.808h349.696c49.024-61.056 123.392-100.992 207.616-100.992a265.6 265.6 0 0 1 148.096 45.056l172.16-172.16a31.936 31.936 0 0 1 45.248 0 32 32 0 0 1 0 45.312z m-58.24 377.6v-99.008c0-17.28-12.672-31.744-27.712-31.744h-32.832a265.6 265.6 0 0 1 20.48 102.208c0 16.192-1.92 31.936-4.736 47.36 13.76-8.576 28.8-15.104 44.8-18.752zM91.776 216.064c-15.04 0-27.712 14.528-27.712 31.744V346.816C132.288 362.24 183.616 426.24 183.616 502.72S132.288 643.2 64 658.688V757.76c0 17.28 12.672 31.744 27.712 31.744H928.64c15.04 0 27.712-14.528 27.712-31.744v-99.072c-66.688-15.168-116.864-76.8-119.104-150.976a266.304 266.304 0 0 1-188.16 77.76 267.392 267.392 0 0 1-247.36-166.848l-130.944 0.128a32 32 0 0 1-0.064-64l114.752-0.128c-1.664-12.032-3.712-23.936-3.712-36.416 0-36.224 7.424-70.656 20.48-102.208h-310.4z m354.048 102.208c0 112 91.2 203.2 203.264 203.2s203.2-91.136 203.2-203.2-91.2-203.2-203.2-203.2-203.264 91.2-203.264 203.2z"  horiz-adv-x="1024" />

    
    <glyph glyph-name="renzheng" unicode="&#58887;" d="M992 480A32 32 0 0 1 1024 512V640c0 52.928-41.28 96-92.032 96H92.032C41.216 736 0 692.928 0 640v-128a32 32 0 0 1 32-32c48.512 0 88-43.072 88-96S80.512 288 32 288a32 32 0 0 1-32-32v-128c0-52.928 41.28-96 92.032-96h839.936c50.752 0 92.032 43.072 92.032 96v128a32 32 0 0 1-32 32c-48.512 0-88 43.072-88 96s39.488 96 88 96z m-32-252.416V128c0-17.344-12.8-32-28.032-32H92.032C76.8 96 64 110.656 64 128v99.584C132.48 243.072 184 307.328 184 384S132.48 524.928 64 540.416V640c0 17.344 12.8 32 28.032 32h839.936c15.232 0 28.032-14.656 28.032-32v-99.584c-68.48-15.488-120-79.744-120-156.416s51.52-140.928 120-156.416zM701.312 574.464c-45.696 13.312-89.024 15.488-117.184-4.928a91.136 91.136 0 0 1-25.984-31.872l-47.36-89.152-48.704 89.28c-16.192 30.208-45.44 46.912-81.92 46.912-25.152-0.896-52.544-4.736-77.44-15.04-35.84-15.104-39.68-43.072-39.68-54.4 0-14.208 5.12-30.272 15.616-49.28l133.824-239.296c8-15.808 21.312-28.224 38.592-35.584 13.824-5.312 33.408-7.808 61.76-7.808 28.224 0 47.744 2.56 63.04 8.448a74.24 74.24 0 0 1 36.288 34.688l129.28 239.616c16.64 30.72 19.584 40.768 19.584 50.496 0 27.008-20.096 46.464-59.712 57.92z m-16.192-78.016l-129.92-240.896a12.16 12.16 0 0 0-3.968-4.736c-1.536-0.64-10.432-3.52-38.4-3.52-28.16 0-37.184 2.944-37.76 3.2-2.368 0.96-4.288 2.752-6.08 6.272l-134.4 240.512a86.08 86.08 0 0 0-6.4 13.632c15.936 6.464 32.768 9.792 50.304 9.792 17.28-0.064 23.68-6.592 27.264-13.376l77.312-141.632a32 32 0 0 1 28.096-16.64c11.904-1.472 22.72 6.528 28.224 17.024l75.84 142.72a28.096 28.096 0 0 0 7.36 9.6c0 0.128 31.872 3.008 60.928-5.44 3.52-1.024 6.4-1.984 8.704-2.88a473.6 473.6 0 0 0-7.04-13.632z"  horiz-adv-x="1024" />

    
    <glyph glyph-name="baocun" unicode="&#58888;" d="M864 896h-704A160.192 160.192 0 0 1 0 736v-704C0-56.192 71.744-128 160-128h704c88.256 0 160 71.808 160 160v704C1024 824.192 952.256 896 864 896zM314.56 832h394.88v-111.36a38.912 38.912 0 0 0-38.848-38.848H353.408a38.912 38.912 0 0 0-38.848 38.848V832z m477.44-896h-560V291.84c0 21.376 17.408 38.848 38.848 38.848h482.304c21.44 0 38.848-17.472 38.848-38.912V-64zM960 32c0-52.928-43.072-96-96-96h-8V291.84a103.04 103.04 0 0 1-102.848 102.848H270.848a103.04 103.04 0 0 1-102.848-102.912V-64H160c-52.928 0-96 43.072-96 96v704C64 788.928 107.072 832 160 832h90.56v-111.36c0-56.704 46.08-102.848 102.848-102.848h317.184a103.04 103.04 0 0 1 102.848 102.848V832H864c52.928 0 96-43.072 96-96v-704zM637.44 713.984a32 32 0 0 1 32 32V775.04a32 32 0 1 1-64 0v-28.992a32 32 0 0 1 32-32zM705.024 251.968H318.976a32 32 0 1 1 0-64h386.048a32 32 0 1 1 0 64zM705.024 75.968H318.976a32 32 0 1 1 0-64h386.048a32 32 0 1 1 0 64z"  horiz-adv-x="1024" />

    
    <glyph glyph-name="jiebangkaipiaoyuan" unicode="&#58889;" d="M450.115868 441.75639a31.934004 31.934004 0 0 1-6.271608 17.27892c13.887132-2.751828 28.15824-4.351728 42.749328-4.351728 121.720392 0 220.658209 99.001812 220.658209 220.658209S608.31398 896 486.593588 896 265.935379 796.998188 265.935379 675.341791a220.786201 220.786201 0 0 1 136.439473-203.763265c-44.221236-4.927692-177.012937-30.846072-250.224361-167.66952-82.170864-153.590401-76.283232-309.100681-76.027249-315.628274 0.511968-12.15924 7.935504-22.974564 19.070808-27.902256 1.91988-0.831948 49.212924-21.630648 120.888445-42.429348a31.934004 31.934004 0 0 1 39.67752 21.75864 31.998 31.998 0 0 1-21.75864 39.805512 1131.769264 1131.769264 0 0 0-93.690144 31.678021c1.407912 44.413224 11.007312 155.318293 68.411724 262.511593 68.7957 128.631961 204.659209 134.775577 210.418849 135.03156a32.189988 32.189988 0 0 1 30.974064 33.021936z m-120.056497 233.585401c0 86.330604 70.267608 156.534217 156.534217 156.534217s156.534217-70.203612 156.534217-156.534217-70.203612-156.534217-156.534217-156.534216-156.534217 70.267608-156.534217 156.534216zM893.032185 242.728829h-114.87282a55.03656 55.03656 0 0 1-55.03656-55.03656 31.998 31.998 0 0 1 62.844072-9.087432h97.977876v-87.162552h-97.91388a32.061996 32.061996 0 0 1-62.844072-9.087432c0-30.334104 24.63846-55.03656 55.03656-55.03656h114.808824c30.334104 0 55.03656 24.702456 55.036561 55.03656v105.401412a55.03656 55.03656 0 0 1-55.036561 55.03656zM595.1948 178.604837a32.061996 32.061996 0 0 1 62.780077 9.151428 55.03656 55.03656 0 0 1-55.036561 55.03656H488.129492a55.03656 55.03656 0 0 1-55.03656-55.03656v-105.401412c0-30.334104 24.702456-55.03656 55.03656-55.03656H602.87432a55.03656 55.03656 0 0 1 55.036561 55.03656 31.998 31.998 0 0 1-62.780077 9.087432H497.216924V178.604837h97.91388zM660.854697 371.232798v-72.827448a31.998 31.998 0 1 1 64.123992 0V371.168802a31.998 31.998 0 1 1-64.123992 0zM774.383601 266.279358a31.998 31.998 0 0 1 22.654584 9.471408l43.133304 43.005312a31.998 31.998 0 1 1-45.373164 45.373164l-43.069308-43.069308a31.998 31.998 0 0 1 22.654584-54.71658zM544.381976 364.129242a31.998 31.998 0 0 1 0-45.373164l43.133304-43.005312a31.998 31.998 0 0 1 45.309168 0 31.998 31.998 0 0 1 0 45.309168l-43.069308 43.069308a31.998 31.998 0 0 1-45.373164 0zM692.916693 9.015437a31.998 31.998 0 0 1-32.061996-32.061997V-95.938004a31.998 31.998 0 1 1 64.123992 0v72.827448a31.998 31.998 0 0 1-32.061996 31.998001zM797.038185-0.391976a31.998 31.998 0 1 1-45.309168-45.373164l43.069308-43.069308a31.998 31.998 0 0 1 45.373164 0 31.998 31.998 0 0 1 0 45.373164l-43.133304 43.069308zM587.51528-0.391976l-43.133304-43.069308a31.998 31.998 0 1 1 45.373164-45.373164l43.069308 43.069308a31.998 31.998 0 1 1-45.309168 45.373164z"  horiz-adv-x="1024" />

    
    <glyph glyph-name="fenpeikaipiaoyuan" unicode="&#58890;" d="M379.906047 406.196902l58.01899-58.018991a32.111944 32.111944 0 0 1 45.417292 0l58.082958 58.018991c36.653673-4.605697 140.217891-26.994503 197.597202-134.076962a32.111944 32.111944 0 0 1 56.547726 30.32084c-73.243378 136.891554-206.104948 162.926537-250.498751 167.916042a221.265367 221.265367 0 0 1 136.571714 204.057971c0 121.923038-99.150425 221.073463-221.009495 221.073463s-221.009495-99.150425-221.009495-221.073463c0-91.922039 56.483758-170.794603 136.571714-204.057971-44.457771-4.989505-177.31934-31.024488-250.562719-167.916042C43.306347 148.597701 49.191404-7.228386 49.511244-13.753123c0.575712-12.153923 7.996002-23.028486 19.190405-27.954023 1.91904-0.831584 49.255372-21.621189 121.091454-42.538731a31.984008 31.984008 0 0 1 39.788106 21.877061 32.111944 32.111944 0 0 1-21.877061 39.788106 1121.35932 1121.35932 0 0 0-93.84108 31.792104c1.407296 44.457771 11.066467 155.506247 68.445778 262.908546 57.315342 107.082459 160.943528 129.471264 197.661169 134.076962zM303.848076 674.414793c0 86.484758 70.364818 156.785607 156.721639 156.785607 86.548726 0 156.849575-70.364818 156.849575-156.721639S547.182409 517.565217 460.633683 517.565217c-86.42079 0-156.721639 70.364818-156.721639 156.785608z m156.721639-221.009496c14.2009 0 27.954023 1.663168 41.387306 4.221889l-41.323338-41.323338-41.25937 41.25937c13.433283-2.558721 27.122439-4.157921 41.25937-4.157921zM910.52074 147.830085h-160.559721c-35.502249 0-64.287856-28.785607-64.287856-64.223888a32.111944 32.111944 0 1 1 64.223888 0h160.559721v-147.382309h-160.559721a32.111944 32.111944 0 1 1-64.223888 0c0-35.438281 28.785607-64.223888 64.223888-64.223888h160.559721c35.502249 0 64.287856 28.785607 64.287856 64.223888V83.606197c0 35.374313-28.785607 64.223888-64.223888 64.223888zM621.193403-31.664168a32.111944 32.111944 0 0 1-32.111944-32.111944h-160.55972V83.606197h160.55972a32.111944 32.111944 0 1 1 64.223888 0c0 35.374313-28.785607 64.223888-64.223888 64.223888h-160.55972c-35.438281 0-64.223888-28.785607-64.223888-64.223888v-147.382309c0-35.438281 28.785607-64.223888 64.223888-64.223888h160.55972c35.438281 0 64.223888 28.785607 64.223888 64.223888a32.111944 32.111944 0 0 1-32.111944 32.111944zM523.002499 9.851074c0-17.71914 14.328836-32.111944 32.111944-32.111944h228.941529a32.111944 32.111944 0 1 1 0 64.223888h-229.005497a32.111944 32.111944 0 0 1-32.047976-32.111944z"  horiz-adv-x="1024" />

    
    <glyph glyph-name="chuangjianyonghu" unicode="&#58891;" d="M552.828172-57.190638c-31.805018-3.83964-62.842109-5.887448-92.023372-5.887448-149.106021 0-295.908259 51.51517-347.359436 71.609286 1.407868 44.539824 11.070962 155.761397 68.473581 263.271319 57.466613 107.189951 161.264881 129.587851 197.997438 134.195419l58.106552-58.106553a33.084898 33.084898 0 0 1 45.435741 0l58.106552 58.106553a276.326094 276.326094 0 0 0 135.411305-57.786583 32.124988 32.124988 0 1 1 40.572197 49.915321 339.168203 339.168203 0 0 1-172.335844 72.057244 221.419242 221.419242 0 0 1 136.819173 204.396838c0 122.036559-99.190701 221.291254-221.227259 221.291254S239.385558 796.681311 239.385558 674.580758c0-92.087367 56.570696-171.055964 136.755179-204.332844-44.411836-4.991532-177.519358-31.03709-250.856482-168.112239C42.859982 148.102115 48.683436-7.915258 49.003406-14.442646c0.575946-12.222854 7.99925-23.03784 19.1982-28.029372 7.807268-3.455676 194.541762-84.920039 392.603194-84.920039 31.805018 0 65.465863 2.175796 99.958628 6.3994a32.124988 32.124988 0 1 1-7.935256 63.802019zM303.763522 674.580758c0 86.583883 70.393401 156.977283 157.041278 156.977283 86.519889 0 156.913289-70.393401 156.913289-156.977283S547.324688 517.603475 460.8048 517.603475A157.169265 157.169265 0 0 0 303.763522 674.580758zM460.8048 453.289504c14.07868 0 27.901384 1.663844 41.27613 4.15961l-41.27613-41.340124-41.404119 41.404118c13.43874-2.55976 27.19745-4.223604 41.404119-4.223604zM942.999594 97.098897h-128.627941v128.627941a32.124988 32.124988 0 1 1-64.313971 0v-128.627941H621.429741a32.124988 32.124988 0 1 1 0-64.313971h128.627941v-128.627941a32.124988 32.124988 0 1 1 64.313971 0v128.627941h128.627941a32.124988 32.124988 0 1 1 0 64.313971z"  horiz-adv-x="1024" />

    
    <glyph glyph-name="daochukehuxinxi" unicode="&#58892;" d="M992 352a32 32 0 0 1-32-32v-192c0-52.928-43.072-96-96-96h-704a32 32 0 1 1 0-64h704c88.256 0 160 71.808 160 160V320a32 32 0 0 1-32 32zM792.192 608L718.72 534.656a32 32 0 1 1 45.248-45.248l128 128a32 32 0 0 1 0 45.248l-128 128a32 32 0 1 1-45.248-45.312L792.192 672H160A160.192 160.192 0 0 1 0 512v-384a32 32 0 1 1 64 0V512c0 52.928 43.072 96 96 96h632.192zM343.68 290.688a326.144 326.144 0 0 1-36.8-153.344 32 32 0 0 1 19.072-27.84c3.712-1.6 92.16-40.192 186.048-40.192s182.4 38.592 186.048 40.192a32.128 32.128 0 0 1 19.072 27.84 327.232 327.232 0 0 1-36.864 153.344A159.744 159.744 0 0 1 592.64 366.464c23.04 21.568 37.632 51.968 37.632 85.952 0 65.28-53.056 118.272-118.272 118.272s-118.272-53.056-118.272-118.272c0-33.92 14.592-64.384 37.632-85.952-28.928-10.688-64.256-32-87.68-75.776zM512 214.848l1.92-5.696-1.92-2.112-1.92 2.112 1.92 5.696z m111.872 45.696a263.04 263.04 0 0 0 28.48-100.16 468.8 468.8 0 0 0-122.176-25.856c1.792 1.28 3.84 2.112 5.312 3.712l38.4 41.408a32 32 0 0 1 6.784 32.128l-31.936 93.44 6.08 6.144c17.664-3.648 49.92-15.232 69.056-50.816zM512 506.688a54.336 54.336 0 0 0 0-108.48 54.336 54.336 0 0 0 0 108.48zM400.128 260.544a100.928 100.928 0 0 0 69.12 50.816l6.016-6.08-32-93.504a32 32 0 0 1 6.848-32.128l38.4-41.408c1.536-1.6 3.52-2.496 5.312-3.712a469.888 469.888 0 0 0-122.24 25.856 261.12 261.12 0 0 0 28.544 100.16z"  horiz-adv-x="1024" />

    
    <glyph glyph-name="bianji" unicode="&#58893;" d="M201.856 2.56a31.68 31.68 0 0 1 4.288 0.32l161.28 21.76a49.024 49.024 0 0 1 27.776 13.952L823.936 467.2a51.52 51.52 0 0 1-1.216 72.704l-3.84 3.84 33.536 33.6 3.84-3.84 0.128-0.064a52.096 52.096 0 0 1 73.792 0l78.208 78.272c9.92 9.856 15.36 23.04 15.36 36.992s-5.44 27.136-15.36 36.928L894.016 840.256a53.568 53.568 0 0 1-73.92 0l-17.92-17.92L737.792 886.656a32 32 0 0 1-45.248 0l-306.56-306.688H320.064a32 32 0 1 1 0-64h79.04a32 32 0 0 1 22.656 9.344l293.376 293.44 41.6-41.6-15.104-15.232a52.352 52.352 0 0 1 0-73.792l3.968-3.84-33.6-33.6-3.84 3.84c-20.352 20.352-53.056 20.928-72.768 1.152l-428.928-428.992a49.28 49.28 0 0 1-14.144-28.16l-22.208-159.552a31.936 31.936 0 0 1 31.68-36.352zM954.88 688.832l-61.632-61.632-97.92 97.92 61.632 61.632 97.92-97.92z m-164.032-49.792l16.32-16.32-33.536-33.536-8.128 8.128-8.192 8.192 33.536 33.536z m-535.808-454.208l416.192 416.192 18.176-18.176 30.784-30.72 49.024-49.024-415.808-415.744-114.048-15.36 15.68 112.832zM382.272 168.32l276.48 276.608a32 32 0 1 1-45.184 45.248l-276.544-276.544a32 32 0 1 1 45.248-45.248zM992 191.872h-315.264a32 32 0 1 1 0-64H960V-64H64v191.872h10.752a32 32 0 1 1 0 64H32a32 32 0 0 1-32-32V-96a32 32 0 0 1 32-32h960a32 32 0 0 1 32 32v255.872a32 32 0 0 1-32 32z"  horiz-adv-x="1024" />

    
    <glyph glyph-name="daorukehuxinxi" unicode="&#58894;" d="M864 736a32 32 0 1 1 0 64h-704A160.192 160.192 0 0 1 0 640v-192a32 32 0 1 1 64 0V640c0 52.928 43.072 96 96 96h704zM992 672a32 32 0 0 1-32-32v-384c0-52.928-43.072-96-96-96H231.808l73.408 73.344a31.104 31.104 0 0 1 7.872 14.912 32 32 0 0 1 12.8-10.752c3.776-1.6 92.16-40.192 186.112-40.192s182.4 38.592 186.048 40.192a32 32 0 0 1 19.072 27.904 326.208 326.208 0 0 1-36.864 153.344 159.616 159.616 0 0 1-87.552 75.712c23.04 21.568 37.568 52.032 37.568 86.016 0 65.216-53.056 118.272-118.272 118.272s-118.272-53.12-118.272-118.272c0-33.92 14.592-64.448 37.568-86.016-28.864-10.688-64.192-32-87.552-75.712a326.912 326.912 0 0 1-36.8-142.72c-0.704 0.768-0.96 1.792-1.728 2.56a32 32 0 0 1-45.248 0l-128-128a32 32 0 0 1 0-45.248l128-128a31.872 31.872 0 0 1 45.248 0 32 32 0 0 1 0 45.312L231.808 96H864c88.192 0 160 71.808 160 160V640a32 32 0 0 1-32 32zM512 342.848l1.92-5.632-1.92-2.112-1.92 2.112 1.92 5.632z m111.872 45.696c20.288-37.952 26.56-77.12 28.48-100.16a469.952 469.952 0 0 0-122.176-25.856c1.792 1.28 3.84 2.112 5.312 3.776l38.4 41.408a32 32 0 0 1 6.784 32.064l-32 93.568 6.08 6.016c17.792-3.84 50.176-15.36 69.12-50.816zM512 634.752a54.336 54.336 0 1 0-0.128-108.672A54.336 54.336 0 0 0 512 634.752zM400.128 388.544a100.928 100.928 0 0 0 69.12 50.816l6.016-6.016-32-93.568a32 32 0 0 1 6.848-32.064l38.4-41.408c1.536-1.664 3.52-2.56 5.312-3.776a469.888 469.888 0 0 0-122.24 25.92c1.792 22.848 8.064 61.76 28.544 100.096z"  horiz-adv-x="1024" />

    
    <glyph glyph-name="tijiaokaipiaoshenqingdan" unicode="&#58895;" d="M767.872-128h-130.56a32 32 0 1 0 0 64h130.56a32.128 32.128 0 0 1 32.128 32.128V675.968a32 32 0 1 0 64 0v-707.84c0-52.992-43.072-96.128-96.128-96.128zM395.392-128H256.064A96.192 96.192 0 0 0 160-31.872V799.872C160 852.864 203.072 896 256 896h387.968a32 32 0 1 0 0-64H256a32.128 32.128 0 0 1-32.064-32.128v-831.744c0-17.728 14.4-32.128 32.064-32.128h139.328a32 32 0 1 0 0-64zM832 643.968h-187.968a32 32 0 0 0-32 32V864a32 32 0 0 0 54.592 22.656l187.968-188.032a32 32 0 0 0-22.592-54.656z m-155.968 64h78.72l-78.72 78.72v-78.72zM512-128a32 32 0 0 0-32 32v277.12a32 32 0 1 0 64 0v-277.12a32 32 0 0 0-32-32zM628.608 32.512a31.872 31.872 0 0 0-22.592 9.408l-94.08 94.016-93.952-94.08a32 32 0 1 0-45.248 45.312l116.608 116.608a32 32 0 0 0 45.248 0l116.672-116.608a32 32 0 0 0-22.656-54.656zM670.016 525.696H353.92a32 32 0 1 0 0 64h316.032a32 32 0 1 0 0-64zM670.016 352H353.92a32 32 0 1 0 0 64h316.032a32 32 0 1 0 0-64z"  horiz-adv-x="1024" />

    
    <glyph glyph-name="chaifen" unicode="&#58896;" d="M610.88 515.008h-53.12a177.024 177.024 0 0 1-176.768-176.832v-53.056c0-17.792 14.336-32.128 32.128-32.128h53.12a177.024 177.024 0 0 1 176.768 176.832v53.056a32.128 32.128 0 0 1-32.128 32.128z m-32.192-85.184a112.64 112.64 0 0 0-112.512-112.512h-20.864v20.864c0 62.08 50.432 112.512 112.512 112.512h20.864v-20.864zM256.832 317.312h-80a112.64 112.64 0 0 0-112.512 112.512V719.168c0 62.08 50.496 112.512 112.512 112.512h289.344c62.08 0 112.512-50.496 112.512-112.512v-80a32.128 32.128 0 1 1 64.32 0v80A177.024 177.024 0 0 1 466.176 896H176.832A177.024 177.024 0 0 1 0 719.168v-289.344a177.024 177.024 0 0 1 176.832-176.832h80a32.128 32.128 0 1 1 0 64.32zM847.168 515.008h-79.936a32.128 32.128 0 1 1 0-64.32h79.936c62.08 0 112.512-50.432 112.512-112.512v-289.344a112.64 112.64 0 0 0-112.512-112.512H557.824a112.64 112.64 0 0 0-112.512 112.512v78.976a32.128 32.128 0 1 1-64.32 0v-78.976A177.024 177.024 0 0 1 557.824-128h289.344A177.024 177.024 0 0 1 1024 48.832V338.176a177.024 177.024 0 0 1-176.832 176.832z"  horiz-adv-x="1024" />

    
    <glyph glyph-name="duqushuikongpan" unicode="&#58897;" d="M799.36 37.312H224.64a59.392 59.392 0 0 0-59.328 59.392v136.768c0 32.768 26.688 59.392 59.392 59.392h574.592c32.704 0 59.392-26.624 59.392-59.392v-136.768a59.392 59.392 0 0 0-59.392-59.392z m-570.048 64h565.376v127.552H229.312v-127.552zM826.624 201.472a32 32 0 0 0-31.488 26.496l-76.8 438.336-411.52 0.384-77.952-438.72a32 32 0 0 0-63.04 11.072l76.8 438.272a67.2 67.2 0 0 0 64.128 53.376h410.496c30.08 0 58.24-23.168 64-52.672l76.928-439.04a32 32 0 0 0-31.552-37.504zM703.552 165.12m-32.704 0a32.704 32.704 0 1 1 65.408 0 32.704 32.704 0 1 1-65.408 0ZM607.552 165.12m-32.704 0a32.704 32.704 0 1 1 65.408 0 32.704 32.704 0 1 1-65.408 0ZM511.552 165.12m-32.704 0a32.704 32.704 0 1 1 65.408 0 32.704 32.704 0 1 1-65.408 0ZM512 338.304c-117.632 0-209.856 62.08-209.856 141.44S394.304 621.248 512 621.248s209.856-62.08 209.856-141.44S629.696 338.368 512 338.368z m0 218.88c-85.952 0-145.856-40.768-145.856-77.44 0-36.608 59.904-77.44 145.856-77.44s145.856 40.832 145.856 77.44c0 36.672-59.904 77.44-145.856 77.44zM992 592a32 32 0 0 0-32 32V716.288A115.84 115.84 0 0 1 844.288 832H752a32 32 0 1 0 0 64h92.288A179.84 179.84 0 0 0 1024 716.288V624a32 32 0 0 0-32-32zM32 592a32 32 0 0 0-32 32V716.288A179.84 179.84 0 0 0 179.712 896H272a32 32 0 1 0 0-64H179.712A115.84 115.84 0 0 1 64 716.288V624a32 32 0 0 0-32-32zM272-128H179.712A179.84 179.84 0 0 0 0 51.712V144a32 32 0 1 0 64 0v-92.288A115.84 115.84 0 0 1 179.712-64H272a32 32 0 1 0 0-64zM844.288-128H752a32 32 0 1 0 0 64h92.288A115.84 115.84 0 0 1 960 51.712V144a32 32 0 1 0 64 0v-92.288A179.84 179.84 0 0 0 844.288-128z"  horiz-adv-x="1024" />

    
    <glyph glyph-name="shengchengdaikai" unicode="&#58898;" d="M362.496 584.32L285.248 507.2a32 32 0 1 1 45.248-45.248l77.248 77.248a32 32 0 1 1-45.248 45.248zM362.496 445.568l-43.392-43.328-57.28-57.28a32 32 0 1 1 45.248-45.248l2.688 2.688v-136.64a32 32 0 1 1 64 0V366.4l33.92 33.92a32 32 0 1 1-45.184 45.248zM727.616 444.544h-88.32v50.56h43.136a32 32 0 1 1 0 64H639.36v42.752a32 32 0 1 1-64 0v-42.816h-60.928a32 32 0 1 1 0-64h60.928v-50.496H463.744a32 32 0 1 1 0-64H613.12v-33.472H497.6a32 32 0 1 1 0-64H613.12v-136a32 32 0 1 1 64 0V283.072h18.624a32 32 0 1 1 0 64h-18.624v33.472h50.496a32 32 0 1 1 0 64zM544.384 259.648a32 32 0 1 1-45.248-45.248l38.656-38.656a31.872 31.872 0 0 1 45.248 0 32 32 0 0 1 0 45.248l-38.656 38.656zM896 896H128C57.408 896 0 838.592 0 768s57.408-128 128-128h25.984v-676.032c0-50.688 43.072-91.968 96-91.968h128a32 32 0 0 1 32 32c0 48.512 43.072 88 96 88s96-39.488 96-88a32 32 0 0 1 32-32h128c52.928 0 96 41.28 96 92.032V640H896c70.592 0 128 57.408 128 128s-57.408 128-128 128z m-134.016-960h-99.52c-15.552 68.48-79.808 120-156.48 120S365.056 4.48 349.568-64H249.984c-17.28 0-32 12.8-32 28.032V736h576v-772.032c0-15.168-14.656-27.968-32-27.968zM896 704h-38.016v32h12.352a32 32 0 1 1 0 64H143.68a32 32 0 1 1 0-64h10.304V704H128c-35.264 0-64 28.736-64 64s28.736 64 64 64h768c35.264 0 64-28.736 64-64s-28.736-64-64-64z"  horiz-adv-x="1024" />

    
    <glyph glyph-name="hebing" unicode="&#58899;" d="M847.168 515.008h-204.16v204.16A177.024 177.024 0 0 1 466.176 896H176.832A177.024 177.024 0 0 1 0 719.168v-289.344a177.024 177.024 0 0 1 176.832-176.832h204.16v-204.16A177.024 177.024 0 0 1 557.824-128h289.344A177.024 177.024 0 0 1 1024 48.832V338.176a177.024 177.024 0 0 1-176.832 176.832z m112.512-466.176a112.64 112.64 0 0 0-112.512-112.512H557.824a112.64 112.64 0 0 0-112.512 112.512V285.12a32.128 32.128 0 0 1-32.192 32.192H176.832a112.64 112.64 0 0 0-112.512 112.512V719.168c0 62.08 50.496 112.512 112.512 112.512h289.344c62.08 0 112.512-50.496 112.512-112.512v-236.288c0-17.792 14.4-32.192 32.192-32.192h236.288c62.08 0 112.512-50.432 112.512-112.512v-289.344z"  horiz-adv-x="1024" />

    
    <glyph glyph-name="daochuexcelwenjian" unicode="&#58900;" d="M992 352a32 32 0 0 1-32-32v-192c0-52.928-43.072-96-96-96h-704a32 32 0 1 1 0-64h704c88.192 0 160 71.808 160 160V320a32 32 0 0 1-32 32zM792.192 608l-73.344-73.344a32 32 0 1 1 45.248-45.248l128 128a32 32 0 0 1 0 45.248l-128 128a32 32 0 1 1-45.248-45.312L792.192 672H160A160.192 160.192 0 0 1 0 512v-384a32 32 0 1 1 64 0V512c0 52.928 43.072 96 96 96h632.192zM589.312 459.968a32 32 0 1 1 0 64H403.968a32 32 0 0 1-32-32v-352a32 32 0 0 1 32-32h185.344a32 32 0 1 1 0 64H435.968v126.72h117.376a32 32 0 1 1 0 64H435.968v97.28h153.344z"  horiz-adv-x="1024" />

    
    <glyph glyph-name="fanhuishangyiye" unicode="&#58901;" d="M864 672H109.248l73.408 73.344a32 32 0 1 1-45.312 45.312l-128-128c-0.192-0.256-0.256-0.576-0.512-0.832a31.872 31.872 0 0 1-8.832-21.76V640c0-0.32 0.192-0.576 0.192-0.896a31.872 31.872 0 0 1 9.344-21.824l127.808-127.872a31.872 31.872 0 0 1 45.312 0 32 32 0 0 1 0 45.248L109.312 608H864c52.928 0 96-43.072 96-96v-384c0-52.928-43.072-96-96-96h-704c-52.928 0-96 43.072-96 96v44.032a32 32 0 1 1-64 0V128c0-88.192 71.744-160 160-160h704c88.256 0 160 71.808 160 160V512c0 88.192-71.744 160-160 160z"  horiz-adv-x="1024" />

    
    <glyph glyph-name="tianjiakehu" unicode="&#58902;" d="M941.305842 96.889722h-128.343893v128.279912a32.053983 32.053983 0 1 1-64.171946 0v-128.279912H620.446111a32.053983 32.053983 0 1 1 0-64.171946h128.343892v-128.343893a32.053983 32.053983 0 1 1 64.171946 0v128.343893h128.279913a32.053983 32.053983 0 1 1 0 64.171946zM580.778507-50.904092c-41.587004-6.461981-81.766448-9.788941-119.258732-9.788941-148.689535 0-295.203749 51.503905-346.451734 71.529647 1.2796 44.274164 10.748641 154.831615 68.458607 262.573945 57.198126 106.97457 160.717776 129.239613 197.378319 133.910153l43.826304-43.826304-77.543767-226.937082a32.053983 32.053983 0 0 1 6.845861-32.181943l83.941768-90.531709a32.117963 32.117963 0 0 1 47.089284 0l84.005749 90.531709a32.053983 32.053983 0 0 1 6.78188 32.181943L498.372259 363.494408l43.762324 43.762324a274.538207 274.538207 0 0 0 137.684973-59.757326 32.053983 32.053983 0 1 1 41.203124 49.200625 337.814433 337.814433 0 0 1-175.305217 74.600688 220.922962 220.922962 0 0 1 136.597314 203.904279C682.314777 796.95895 583.273727 896 461.583755 896S240.724774 796.95895 240.724774 675.268978c0-91.875289 56.430366-170.698657 136.405373-203.904279-44.338144-4.92646-177.096657-30.966323-250.289785-167.691597C44.690034 149.993127 50.576195-5.606248 50.896095-12.132209c0.51184-12.156201 7.869541-23.032802 19.066042-27.959262 7.805561-3.45492 194.051359-84.709528 391.557638-84.709529 40.755264 0 84.197688 3.5189 129.111653 10.492721a32.053983 32.053983 0 1 1-9.852921 63.340207zM461.455795 82.814121l-47.409185 51.184005 47.409185 138.836613 47.473165-138.836613-47.473165-51.184005zM304.89672 675.268978c0 86.309028 70.314027 156.559075 156.623055 156.559076S618.20681 761.641987 618.20681 675.268978 547.828803 518.645923 461.455795 518.645923 304.89672 588.89597 304.89672 675.204998z m156.623055-220.795001c14.075601 0 27.831303 1.5995 41.267104 4.1587l-41.267104-41.267104-41.203124 41.267104c13.371821-2.5592 27.127523-4.1587 41.203124-4.1587z"  horiz-adv-x="1024" />

    
    <glyph glyph-name="daochuduanxinjilu" unicode="&#58903;" d="M992 352a32 32 0 0 1-32-32v-192c0-52.928-43.072-96-96-96h-704a32 32 0 1 1 0-64h704c88.256 0 160 71.808 160 160V320a32 32 0 0 1-32 32zM792.192 608L718.72 534.656a32 32 0 1 1 45.248-45.248l128 128a32 32 0 0 1 0 45.248l-128 128a32 32 0 1 1-45.248-45.312L792.192 672H160A160.192 160.192 0 0 1 0 512v-384a32 32 0 1 1 64 0V512c0 52.928 43.072 96 96 96h632.192zM136 320c0-52.928 43.072-96 96-96s96 43.072 96 96-43.072 96-96 96-96-43.072-96-96z m128 0a32 32 0 1 0-64.064 0.128A32 32 0 0 0 264 320zM416 320c0-52.928 43.072-96 96-96S608 267.072 608 320 564.928 416 512 416 416 372.928 416 320z m128 0a32 32 0 1 0-64.064 0.128A32 32 0 0 0 544 320zM696 320c0-52.928 43.072-96 96-96s96 43.072 96 96-43.072 96-96 96-96-43.072-96-96z m128 0a32 32 0 1 0-64.064 0.128 32 32 0 0 0 64.064-0.128z"  horiz-adv-x="1024" />

    
    <glyph glyph-name="daochumingxi" unicode="&#58904;" d="M992 352a32 32 0 0 1-32-32v-192c0-52.928-43.072-96-96-96h-704a32 32 0 1 1 0-64h704c88.256 0 160 71.808 160 160V320a32 32 0 0 1-32 32zM864.448 358.016a32 32 0 0 1-32 32h-517.76a32 32 0 1 1 0-64h517.76a32 32 0 0 1 32 32zM205.184 358.016m-32 0a32 32 0 1 1 64 0 32 32 0 1 1-64 0ZM314.688 249.984a32 32 0 1 1 0-64h335.744a32 32 0 1 1 0 64H314.688zM205.184 217.984m-32 0a32 32 0 1 1 64 0 32 32 0 1 1-64 0ZM792.192 608L718.72 534.656a32 32 0 1 1 45.248-45.248l128 128a32 32 0 0 1 0 45.248l-128 128a32 32 0 1 1-45.248-45.312L792.192 672H160A160.192 160.192 0 0 1 0 512v-384a32 32 0 1 1 64 0V512c0 52.928 43.072 96 96 96h632.192z"  horiz-adv-x="1024" />

    
    <glyph glyph-name="daochuzhuxinxi" unicode="&#58905;" d="M992 352a32 32 0 0 1-32-32v-192c0-52.928-43.072-96-96-96h-704a32 32 0 1 1 0-64h704c88.256 0 160 71.808 160 160V320a32 32 0 0 1-32 32zM792.192 608L718.72 534.656a32 32 0 1 1 45.248-45.248l128 128a32 32 0 0 1 0 45.248l-128 128a32 32 0 1 1-45.248-45.312L792.192 672H160A160.192 160.192 0 0 1 0 512v-384a32 32 0 1 1 64 0V512c0 52.928 43.072 96 96 96h632.192zM727.68 375.04a32 32 0 0 1-30.464 22.144H566.72l-40.32 124.032c-8.576 26.368-52.224 26.368-60.8 0l-40.32-124.032H294.784a32 32 0 0 1-18.752-57.856l105.536-76.672-40.32-124.032a32.064 32.064 0 0 1 49.28-35.84l105.472 76.672 105.472-76.672a31.808 31.808 0 0 1 37.632 0 32.064 32.064 0 0 1 11.648 35.84l-40.32 124.032 105.6 76.672a32 32 0 0 1 11.584 35.712z m-154.88-60.672c-22.4-16.32-31.744-45.056-23.232-71.552l9.856-30.336-25.792 18.752a63.872 63.872 0 0 1-75.264 0l-25.792-18.752 9.856 30.4a64 64 0 0 1-23.232 71.488l-25.856 18.816h31.936a63.744 63.744 0 0 1 60.8 44.224l9.92 30.4 9.856-30.336a63.68 63.68 0 0 1 60.864-44.288h32l-25.984-18.816z"  horiz-adv-x="1024" />

    
    <glyph glyph-name="daochuwordwendang" unicode="&#58906;" d="M992 352a32 32 0 0 1-32-32v-192c0-52.928-43.072-96-96-96h-704a32 32 0 1 1 0-64h704c88.256 0 160 71.808 160 160V320a32 32 0 0 1-32 32zM792.192 608L718.72 534.656a32 32 0 1 1 45.248-45.248l128 128a32 32 0 0 1 0 45.248l-128 128a32 32 0 1 1-45.248-45.312L792.192 672H160A160.192 160.192 0 0 1 0 512v-384a32 32 0 1 1 64 0V512c0 52.928 43.072 96 96 96h632.192zM721.088 476.608a32.128 32.128 0 0 1-39.872-21.312l-63.872-211.072-75.328 211.2c-8.96 25.536-51.264 25.408-60.288 0l-75.2-211.2-63.872 211.072a32.064 32.064 0 0 1-61.312-18.56l92.032-304a32 32 0 0 1 29.888-22.72c13.312 0.832 26.24 8.256 30.848 21.248l77.76 218.048 77.824-218.048a32 32 0 0 1 30.08-21.248h0.768a32 32 0 0 1 29.888 22.72l92.032 304a32 32 0 0 1-21.376 39.872z"  horiz-adv-x="1024" />

    
    <glyph glyph-name="dayin" unicode="&#58907;" d="M862.976 649.92H832V800c0 52.928-43.072 96-96 96h-448C235.072 896 192 852.928 192 800v-150.08h-31.04A161.152 161.152 0 0 1 0 488.896v-254.016a161.152 161.152 0 0 1 160.96-160.96H192V-32c0-52.928 43.072-96 96-96h448c52.928 0 96 43.072 96 96v105.92h30.976A161.152 161.152 0 0 1 1024 234.88V488.96a161.152 161.152 0 0 1-161.024 160.96zM256 800a32 32 0 0 0 32 32h448a32 32 0 0 0 32-32v-150.08H256V800z m512-832a32 32 0 0 0-32-32h-448a32 32 0 0 0-32 32V297.92a32 32 0 0 0 32 32h448a32 32 0 0 0 32-32V-32z m192 266.88c0-53.504-43.52-96.96-97.024-96.96H832v160c0 52.928-43.072 96-96 96h-448c-52.928 0-96-43.072-96-96v-160h-31.04C107.52 137.92 64 181.44 64 234.88V488.96c0 53.44 43.52 96.96 96.96 96.96h702.08c53.44 0 96.96-43.52 96.96-97.024v-254.016zM653.312 279.744H361.344a32 32 0 1 1 0-64h291.968a32 32 0 1 1 0 64zM653.312 162.56H361.344a32 32 0 1 1 0-64h291.968a32 32 0 1 1 0 64zM653.312 45.312H361.344a32 32 0 1 1 0-64h291.968a32 32 0 1 1 0 64z"  horiz-adv-x="1024" />

    
    <glyph glyph-name="zuofei" unicode="&#58908;" d="M427.077626-2.372483H230.226667a92.025903 92.025903 0 0 0-91.897911 91.897912V739.914341c0 50.684642 41.21327 91.897912 91.897911 91.897911h160.373376v-293.100582c0-17.726826 14.399046-32.125872 32.125871-32.125871h293.100582v-124.279767a32.061876 32.061876 0 1 1 64.187748 0V538.71167c0 1.471902-0.639958 2.687822-0.831945 4.159725a31.741897 31.741897 0 0 1-8.575432 18.55877L445.444409 886.528627a31.805893 31.805893 0 0 1-18.55877 8.639428C425.349741 895.360042 424.133821 896 422.661919 896H230.226667a156.213651 156.213651 0 0 1-156.085659-156.085659v-650.388912a156.213651 156.213651 0 0 1 156.149655-156.021664h196.786963a32.061876 32.061876 0 1 1 0 64.123752z m27.710164 573.146029v215.665712l215.665712-215.665712h-215.665712zM789.037646 78.262175l151.413969 151.413969a32.061876 32.061876 0 1 1-45.43699 45.43699L743.664652 123.571173 592.186688 275.049138a32.061876 32.061876 0 1 1-45.372994-45.372994l151.477964-151.413969-151.477964-151.413969a32.061876 32.061876 0 1 1 45.436989-45.436989l151.413969 151.477964 151.413969-151.413969a31.99788 31.99788 0 0 1 45.372994 0 32.061876 32.061876 0 0 1 0 45.372994l-151.413969 151.413969z"  horiz-adv-x="1024" />

    
    <glyph glyph-name="renzhengxinxi" unicode="&#58909;" d="M992 480A32 32 0 0 1 1024 512V640c0 52.928-41.28 96-92.032 96H92.032C41.216 736 0 692.928 0 640v-128a32 32 0 0 1 32-32c48.512 0 88-43.072 88-96S80.512 288 32 288a32 32 0 0 1-32-32v-128c0-52.928 41.28-96 92.032-96h839.936c50.752 0 92.032 43.072 92.032 96v128a32 32 0 0 1-32 32c-48.512 0-88 43.072-88 96s39.488 96 88 96z m-32-252.416V128c0-17.344-12.8-32-28.032-32H92.032C76.8 96 64 110.656 64 128v99.584C132.48 243.072 184 307.328 184 384S132.48 524.928 64 540.416V640c0 17.344 12.8 32 28.032 32h839.936c15.232 0 28.032-14.656 28.032-32v-99.584c-68.48-15.488-120-79.744-120-156.416s51.52-140.928 120-156.416zM713.216 479.168H582.72l-40.32 124.032c-8.512 26.304-52.288 26.304-60.8 0l-40.32-124.032H310.784a32 32 0 0 1-18.752-57.856L397.44 344.576l-40.32-124.032a32 32 0 0 1 49.28-35.776L512 261.44l105.536-76.672a31.808 31.808 0 0 1 37.632 0 32 32 0 0 1 11.584 35.776l-40.32 124.032 105.6 76.736a32 32 0 0 1-18.816 57.856zM588.8 396.352a63.808 63.808 0 0 1-23.296-71.488l9.92-30.4-25.92 18.816a63.936 63.936 0 0 1-75.2-0.064l-25.856-18.752 9.92 30.4a63.808 63.808 0 0 1-23.296 71.488l-25.792 18.816h31.936a63.872 63.872 0 0 1 60.8 44.16L512 489.856l9.856-30.4a63.872 63.872 0 0 1 60.864-44.224h32l-25.856-18.816z"  horiz-adv-x="1024" />

    
    <glyph glyph-name="jiankongxinxifanxie" unicode="&#58910;" d="M866.944 69.44a759.68 759.68 0 0 1 102.208 142.08l0.128 0.256c29.056 52.224 48.256 101.568 54.272 137.472a32.32 32.32 0 0 1-35.648 37.376c-1.152 0-106.368-11.52-182.784 64.896l-164.48 164.48-43.072 43.072-45.76 45.76a32.256 32.256 0 0 1-45.632 0l-45.76-45.76-67.328-67.328L155.264 829.44a32.256 32.256 0 0 1-45.632 0L9.472 729.344a32.256 32.256 0 0 1 0-45.632l237.76-237.824-60.608-60.608-45.76-45.76a32.256 32.256 0 0 1 0-45.632l45.76-45.76 43.072-43.136 192.064-192c55.68-55.68 118.208-83.968 184.128-83.968a251.52 251.52 0 0 1 76.672 12.416c66.88 21.376 128.768 68.288 181.12 124.352 1.28 1.088 2.176 2.432 3.2 3.648zM77.952 706.56l54.528 54.4 214.976-214.912-54.528-54.464-215.04 214.976z m237.76-283.52L416 523.328l90.112 90.112a32.384 32.384 0 0 0 45.824 0l20.288-20.224-159.744-159.744-0.064-0.064-0.064-0.128-159.744-159.744-20.288 20.288a32.448 32.448 0 0 0 0 45.888L315.712 423.04z m151.68-364.416L298.24 227.84l45.248 45.312 36.544-36.48a32.192 32.192 0 0 1 45.632 0 32.256 32.256 0 0 1 0 45.568l-36.48 36.544 46.016 46.08L520.96 279.04a32.192 32.192 0 0 1 45.696 0 32.256 32.256 0 0 1 0 45.632l-85.76 85.76 45.952 46.08 36.544-36.48a32.192 32.192 0 0 1 45.696 0 32.256 32.256 0 0 1 0 45.632l-36.544 36.48 45.312 45.312 141.632-141.632c63.808-63.808 141.824-80.192 190.272-83.584-6.656-19.2-16.832-40.832-28.48-63.104-58.88-5.632-101.056 32.512-103.04 34.368a32.32 32.32 0 0 1-44.672-46.592c2.304-2.176 44.928-42.24 109.888-51.456-16-23.744-33.856-46.976-53.248-69.312-44.672 13.12-87.936 55.04-102.208 72a32.256 32.256 0 0 1-49.536-41.472c2.304-2.752 44.544-52.352 102.464-80.32-25.216-22.72-51.84-42.112-79.552-56.32-42.048 28.864-83.968 70.528-84.48 71.04a32.256 32.256 0 1 1-45.696-45.632c1.536-1.536 25.152-24.96 55.872-50.176-57.088-7.36-109.632 13.376-159.616 63.36z"  horiz-adv-x="1024" />

    
    <glyph glyph-name="wangshangbaoshui" unicode="&#58911;" d="M151.36 294.72a32.064 32.064 0 0 1 31.744 37.12A333.312 333.312 0 0 0 512 716.992a333.312 333.312 0 0 0 314.496-223.488 32 32 0 1 1 60.672 21.12A397.568 397.568 0 0 1 512 781.184 397.632 397.632 0 0 1 119.68 321.92c2.56-15.872 16.128-27.136 31.68-27.136zM1022.08 518.784c-7.36 31.104-34.496 53.76-80.512 67.136a32.192 32.192 0 0 1-17.984-61.632c26.496-7.808 35.2-16.704 36.032-20.352 1.472-6.144-11.712-39.04-102.784-88.128-82.304-44.352-196.608-85.12-321.856-114.88-125.248-29.696-245.184-44.608-339.2-41.92-103.36 2.944-129.92 26.432-131.392 32.576-0.768 3.2 2.624 16.384 27.136 38.016a32.128 32.128 0 1 1-42.432 48.128c-39.04-34.368-54.912-68.352-47.168-100.928 11.008-46.592 66.112-73.408 162.944-80.32a31.744 31.744 0 0 1 4.032-12.736A398.976 398.976 0 0 1 512-13.184c214.784 0 389.888 171.52 396.544 384.64 86.208 50.56 124.8 100.032 113.536 147.328zM512 51.072a334.08 334.08 0 0 0-273.472 144.192c91.136 2.048 199.296 16.64 311.296 43.2 108.864 25.856 209.088 60.16 290.304 98.048-23.296-161.024-160.768-285.44-328.128-285.44z"  horiz-adv-x="1024" />

    
    <glyph glyph-name="chakanjiankongxinxi" unicode="&#58912;" d="M991.808 395.328h-125.12a32.192 32.192 0 0 1-28.8-17.792l-2.88-5.76-20.608 82.56a32.128 32.128 0 0 1-29.952 24.32 32.896 32.896 0 0 1-31.744-21.888l-38.656-115.84-24.128 193.088a32.192 32.192 0 0 1-30.272 28.16 33.536 33.536 0 0 1-32.96-24.96L552.96 217.856 523.264 782.08a32.128 32.128 0 0 1-63.488 5.504L375.424 421.888l-19.2 153.856a32.128 32.128 0 0 1-28.8 28.032 32.832 32.832 0 0 1-33.664-21.888L245.248 436.48l-14.976 59.712a32.128 32.128 0 0 1-59.968 6.592l-32.832-65.728H32.192a32.128 32.128 0 1 1 0-64.32h125.12c12.16 0 23.36 6.912 28.8 17.792l2.88 5.76 20.608-82.56a32.128 32.128 0 0 1 29.952-24.32 30.976 30.976 0 0 1 31.744 21.888l38.656 115.84 24.128-193.088a32.192 32.192 0 0 1 63.232-3.2L471.04 550.144l29.696-564.288a32.128 32.128 0 0 1 63.488-5.504l84.352 365.696 19.2-153.856a32.128 32.128 0 0 1 62.464-6.208l48.512 145.536 14.976-59.712a32.128 32.128 0 0 1 59.968-6.592l32.832 65.664h105.28a32.128 32.128 0 1 1 0 64.384z"  horiz-adv-x="1024" />

    
    <glyph glyph-name="dangqianpiaohao" unicode="&#58913;" d="M992 480A32 32 0 0 1 1024 512V640c0 52.928-41.28 96-92.032 96H92.032C41.216 736 0 692.928 0 640v-128a32 32 0 0 1 32-32c48.512 0 88-43.072 88-96S80.512 288 32 288a32 32 0 0 1-32-32v-128c0-52.928 41.28-96 92.032-96h839.936c50.752 0 92.032 43.072 92.032 96v128a32 32 0 0 1-32 32c-48.512 0-88 43.072-88 96s39.488 96 88 96z m-32-252.416V128c0-17.344-12.8-32-28.032-32H92.032C76.8 96 64 110.656 64 128v99.584C132.48 243.072 184 307.328 184 384S132.48 524.928 64 540.416V640c0 17.344 12.8 32 28.032 32h839.936c15.232 0 28.032-14.656 28.032-32v-99.584c-68.48-15.488-120-79.744-120-156.416s51.52-140.928 120-156.416zM349.248 372.864v61.568a32 32 0 1 1-64 0v-60.16h-14.976v16a32 32 0 1 1-64 0v-48a32 32 0 0 1 32-32h46.976v-27.52a32 32 0 1 1 64 0v29.056c14.08 3.328 24.64 15.36 24.64 30.528s-10.624 27.136-24.64 30.528zM508.8 466.368c-42.048 0-76.16-34.176-76.16-76.16 0-29.696 17.472-54.848 42.368-67.392l-15.232-21.376a32 32 0 0 1 52.096-37.184l61.888 86.784c1.28 1.728 1.664 3.712 2.496 5.568 5.12 10.24 8.704 21.376 8.704 33.6 0 41.984-34.176 76.16-76.16 76.16z m0-64a12.16 12.16 0 0 0 12.16-12.16c0-13.44-24.384-13.44-24.32 0a12.16 12.16 0 0 0 12.16 12.16zM736.96 466.368c-42.048 0-76.16-34.176-76.16-76.16 0-29.696 17.536-54.848 42.368-67.392l-15.232-21.376a32 32 0 0 1 52.096-37.184l61.888 86.784c1.216 1.664 1.6 3.584 2.432 5.44 5.184 10.24 8.768 21.44 8.768 33.728 0 41.984-34.176 76.16-76.16 76.16z m0-64a12.16 12.16 0 0 0 12.16-12.16c0-13.44-24.32-13.44-24.32 0a12.16 12.16 0 0 0 12.16 12.16z"  horiz-adv-x="1024" />

    
    <glyph glyph-name="qingqiuliushuihao" unicode="&#58914;" d="M636.984188 270.56709a31.998 31.998 0 0 1-31.998 31.998H401.990876a31.998 31.998 0 1 1 0-63.996001h202.995312a31.998 31.998 0 0 1 31.998 31.998001zM401.990876 180.908693a31.998 31.998 0 1 1 0-63.996h27.326292a31.998 31.998 0 1 1 0 63.996h-27.326292zM324.811699 360.353478a32.061996 32.061996 0 0 1-44.029248-10.303356l-61.11618-98.553841-62.07612 104.953441a31.998 31.998 0 0 1-55.036561-32.63796l60.348229-102.009625h-29.886132a31.998 31.998 0 1 1 0-63.996h54.012624v-25.150428h-54.012624a31.998 31.998 0 1 1 0-63.996h54.012624v-53.948628a31.998 31.998 0 1 1 63.996 0v53.948628h54.012624a31.998 31.998 0 1 1 0 63.996h-54.012624v25.150428h54.012624a31.998 31.998 0 1 1 0 63.996H276.494719l58.620336 94.458097a31.998 31.998 0 0 1-10.23936 44.093244zM519.935504-63.940004H99.161802A35.1978 35.1978 0 0 0 64.027998-28.8062V796.8062A35.1978 35.1978 0 0 0 99.161802 832.004h569.692395a35.1978 35.1978 0 0 0 35.133804-35.133804v-400.870946a31.998 31.998 0 1 1 63.996 0V796.8062A99.1938 99.1938 0 0 1 668.854197 896H99.225798A99.1938 99.1938 0 0 1 0.031998 796.870196V-28.742204A99.1938 99.1938 0 0 1 99.161802-127.936004h420.773702a31.998 31.998 0 1 1 0 63.996zM636.984188 716.363227a53.75664 53.75664 0 0 1-53.692644 53.628649H184.148491a53.75664 53.75664 0 0 1-53.628648-53.628649v-115.640772a53.75664 53.75664 0 0 1 53.628648-53.628648h399.143053a53.75664 53.75664 0 0 1 53.75664 53.628648V716.363227z m-63.996-105.27342H194.579839V705.931879h378.472345v-94.906068zM1010.144866 410.526342a31.870008 31.870008 0 0 1-33.085932 1.983876L505.6004 164.013749a31.998 31.998 0 0 1 0.255984-56.700456l114.23286-58.684332a31.934004 31.934004 0 1 1 29.246173 56.892444l-59.516281 30.590088 279.662521 147.382789c-42.365352-52.15674-92.538216-113.528904-121.528404-147.510781-55.548528-65.211924-63.03606-117.75264-63.03606-160.757953V-95.938004a31.998 31.998 0 1 1 63.996 0v71.163552c0 30.590088 3.711768 67.51578 47.805012 119.288545 35.83776 42.109368 103.67352 125.368164 149.622649 182.196613l-37.75764-304.428974-91.066309 46.717081a31.934004 31.934004 0 1 1-29.246172-56.892445l131.767765-67.579776a31.742016 31.742016 0 0 1 29.566152 0.127992 32.189988 32.189988 0 0 1 16.830948 24.31848l57.27642 461.28317a31.870008 31.870008 0 0 1-13.567152 30.270108z"  horiz-adv-x="1024" />

    
    <glyph glyph-name="fapiaotaitou" unicode="&#58915;" d="M760.896 486.016H572.928a32 32 0 1 1 0-64h187.968a32 32 0 1 1 0 64zM760.896 345.984H572.928a32 32 0 1 1 0-64h187.968a32 32 0 1 1 0 64zM992 480A32 32 0 0 1 1024 512V640c0 52.928-41.28 96-92.032 96H92.032C41.216 736 0 692.928 0 640v-128a32 32 0 0 1 32-32c48.512 0 88-43.072 88-96S80.512 288 32 288a32 32 0 0 1-32-32v-128c0-52.928 41.28-96 92.032-96h839.936c50.752 0 92.032 43.072 92.032 96v128a32 32 0 0 1-32 32c-48.512 0-88 43.072-88 96s39.488 96 88 96z m-32-252.416V128c0-17.344-12.8-32-28.032-32H92.032C76.8 96 64 110.656 64 128v99.584C132.48 243.072 184 307.328 184 384S132.48 524.928 64 540.416V640c0 17.344 12.8 32 28.032 32h839.936c15.232 0 28.032-14.656 28.032-32v-99.584c-68.48-15.488-120-79.744-120-156.416s51.52-140.928 120-156.416zM428.8 512h-128c-35.392 0-64-28.736-64-64v-128c0-35.264 28.608-64 64-64h128c35.264 0 64 28.736 64 64V448c0 35.264-28.736 64-64 64z m-0.192-192H300.8V448h128l-0.128-128z"  horiz-adv-x="1024" />

    
    <glyph glyph-name="saoma" unicode="&#58916;" d="M720 768h80c52.928 0 96-43.072 96-96v-80a32 32 0 1 1 64 0V672C960 760.192 888.256 832 800 832h-80a32 32 0 1 1 0-64zM96 560a32 32 0 0 1 32 32V672C128 724.928 171.072 768 224 768h80a32 32 0 1 1 0 64H224A160.192 160.192 0 0 1 64 672v-80a32 32 0 0 1 32-32zM304 0H224c-52.928 0-96 43.072-96 96v80a32 32 0 1 1-64 0v-80C64 7.808 135.744-64 224-64h80a32 32 0 1 1 0 64zM928 208a32 32 0 0 1-32-32v-80c0-52.928-43.072-96-96-96h-80a32 32 0 1 1 0-64h80c88.256 0 160 71.808 160 160v80a32 32 0 0 1-32 32zM992 416H32a32 32 0 1 1 0-64h960a32 32 0 1 1 0 64z"  horiz-adv-x="1024" />

    
    <glyph glyph-name="huoqudangqianhaoma" unicode="&#58917;" d="M926.846221 798.937715A328.996498 328.996498 0 0 1 692.607369 895.99872a328.996498 328.996498 0 0 1-234.238853-97.061005L292.398677 633.09584 222.658073 563.291255c-0.511858-0.447875-0.639822-1.087697-1.087697-1.599556a67.053351 67.053351 0 0 1 1.023715-93.989859l69.868568-69.868567a67.437244 67.437244 0 0 1 95.653396 0l69.868568 69.868567 185.804323 185.804324a97.316934 97.316934 0 0 0 166.033822-68.780871c0-25.976775-10.173171-50.417978-28.536063-68.716888L595.482381 330.1401 525.613814 260.20755c-12.796441-12.796441-19.834484-29.687743-19.834484-47.794707 0.063982-18.106964 7.102025-35.062248 19.834484-47.730725l69.868567-69.93255c12.732459-12.732459 29.687743-19.770501 47.794708-19.770502s35.062248 7.038043 47.794707 19.834484l69.868567 69.804586 165.905858 165.905857a331.619768 331.619768 0 0 1 0 468.413722zM342.304796 443.516567a3.007164 3.007164 0 0 0-4.094861 0L268.341368 517.479996l74.027411 69.868568L412.237346 513.385135 342.368779 443.516567z m300.90831-303.851491a2.879199 2.879199 0 0 0-1.983448 0.831768L571.36109 214.460273l73.963429 69.93255 69.93255-73.963429-71.97998-70.764318z m237.821856 236.606194l-118.495043-118.495044c-0.639822 0.767786-0.895751 1.72752-1.599556 2.431324L691.007813 330.1401c-0.639822 0.639822-1.663537 0.959733-2.431323 1.599555l138.393509 138.393509a160.915245 160.915245 0 0 1 47.474796 114.528147 162.130907 162.130907 0 0 1-276.467108 114.528147L459.64816 560.731966c-0.703804 0.703804-0.895751 1.72752-1.663537 2.431324L388.116055 633.031858c-0.703804 0.767786-1.72752 0.959733-2.495306 1.663537L504.179775 753.190439a264.758364 264.758364 0 0 0 188.491576 78.05829c71.212194 0 138.201563-27.640313 188.491576-78.05829a266.805795 266.805795 0 0 0 0-376.919169zM329.188444 216.507704a32.374996 32.374996 0 0 1 42.740113-16.379445l122.461941 54.640803a32.374996 32.374996 0 0 1 4.734683 56.496287l-34.422426 22.841647 56.624251 27.512349a32.374996 32.374996 0 0 1-28.280135 58.223806l-107.490104-52.337444a32.438978 32.438978 0 0 1-3.710968-56.048411l32.50296-21.562003-68.78087-30.711459a32.311013 32.311013 0 0 1-16.379445-42.740112zM133.082986 230.32786l43.699846 43.635864a32.374996 32.374996 0 1 1-45.811258 45.747276l-42.484185-42.548166-10.365117 10.365117 11.132904 11.132904a32.374996 32.374996 0 1 1-45.747277 45.747276l-34.038533-34.038533a32.374996 32.374996 0 0 1 0-45.747276l33.270747-33.270747-19.45059-19.386608a32.374996 32.374996 0 1 1 45.811258-45.747276l20.474306 20.474305c5.118576-3.071146 10.621046-5.182559 16.379444-5.182558a31.863138 31.863138 0 0 1 27.128455 48.818422zM312.809 75.107031a76.778646 76.778646 0 0 1-108.51382 108.449837 76.138824 76.138824 0 0 1-17.851035-77.930325l-25.784828-4.35079a32.374996 32.374996 0 1 1 10.685028-63.790259l105.570638 17.659089c2.111413 0.319911 3.838932 1.471591 5.758398 2.175395 10.940957 3.646986 21.434039 9.021491 30.135619 17.723071z m-62.766543 45.747276a12.028655 12.028655 0 1 0 17.019266 0 11.772726 11.772726 0 0 0-7.166006-2.943181l-1.919467-0.319911a11.772726 11.772726 0 0 0-7.933793 3.19911zM366.362106 18.802691a76.138824 76.138824 0 0 1-17.851036-77.930326l-25.784828-4.35079a32.374996 32.374996 0 1 1 10.685028-63.790258l105.570638 17.659088c2.239377 0.383893 3.966897 1.471591 5.950345 2.239377 11.068921 3.710968 21.434039 9.213438 29.943672 17.723071a76.138824 76.138824 0 0 1 22.521736 54.25691c0 20.474306-7.997776 39.732949-22.521736 54.192928a78.442183 78.442183 0 0 1-108.513819 0z m45.747276-45.747277a12.156619 12.156619 0 0 0 8.509633 3.007164 12.156619 12.156619 0 0 0 8.509634-3.007164 11.964672 11.964672 0 0 0 0-16.955284c-4.030879-4.030879-12.988388-4.030879-17.019267 0a12.028655 12.028655 0 0 0 0 16.955284z"  horiz-adv-x="1024" />

    
    <glyph glyph-name="yebianjushezhi" unicode="&#58918;" d="M921.062434 88.370477l-18.942816 11.1993 19.51878 11.647272a44.47722 44.47722 0 0 1 18.302856 54.844572l-18.55884 45.43716a44.47722 44.47722 0 0 1-52.220737 26.110368l-21.566652-5.631648 5.695644 21.566652a44.605212 44.605212 0 0 1-25.5984 52.540717l-42.87732 17.854884V800.006c0 52.924692-43.069308 95.994-95.994 95.994h-511.968002c-52.924692 0-95.994-43.069308-95.994001-95.994v-831.948004c0-52.924692 43.069308-95.994 95.994001-95.994h475.04231c2.431848 0 4.543716 0.895944 6.783576 1.343916 17.27892-2.367852 34.813824 5.11968 43.773264 20.606712l11.51928 19.134804 11.903256-20.030748c8.191488-13.183176 22.270608-21.054684 37.693644-21.054684a61.180176 61.180176 0 0 1 16.702956 3.1998l45.949128 18.814824a44.7972 44.7972 0 0 1 25.726392 51.964752l-5.503656 21.43866 22.462596-5.75964a44.093244 44.093244 0 0 1 51.452785 25.91838l19.134804 45.693145a44.349228 44.349228 0 0 1-18.430848 55.03656zM144.790951-31.942004v831.948004a31.998 31.998 0 0 0 31.998 31.998h511.968002a31.998 31.998 0 0 0 31.998-31.998v-503.712518l-5.11968-8.767452-11.1993 19.070808c-10.87932 19.070808-34.365852 27.454284-55.100556 19.070808l-46.077121-18.750828a44.861196 44.861196 0 0 1-25.726392-52.220737l5.75964-21.502656-21.75864 5.887632a44.989188 44.989188 0 0 1-52.284732-25.726392l-19.006812-45.565152a44.349228 44.349228 0 0 1 18.750828-55.35654l18.942816-10.87932-20.030748-11.903256a44.413224 44.413224 0 0 1-18.302856-54.652584l18.686832-45.501157a44.733204 44.733204 0 0 1 52.47672-26.110368l20.990688 5.631648-5.631648-22.3986c-0.895944-3.583776-0.63996-7.03956-0.703956-10.55934H176.852947a31.998 31.998 0 0 0-31.998 31.998z m686.421098 132.471721c0-3.903756-0.191988-7.871508-0.511968-11.775264a31.870008 31.870008 0 0 1 15.615024-30.590088l27.454284-16.126992-5.823636-14.015124-31.550028 8.063496a31.806012 31.806012 0 0 1-32.381976-10.23936 127.35204 127.35204 0 0 0-15.807012-15.743016 31.870008 31.870008 0 0 1-10.495344-32.573965l7.9995-30.846072-13.823136-5.695644-16.63896 28.030248a32.061996 32.061996 0 0 1-27.51828 15.67902l-2.623836-0.127992c-7.231548-0.511968-14.3991-0.63996-21.630648 0.127992a31.934004 31.934004 0 0 1-30.462096-15.423036l-16.63896-27.710268-14.07912 5.887632 8.063496 31.806012a31.998 31.998 0 0 1-10.623337 32.445973 111.993 111.993 0 0 0-15.231048 15.35904 32.381976 32.381976 0 0 1-33.149928 10.815324l-30.3981-8.191488-5.631648 13.75914 27.966252 16.510968a32.061996 32.061996 0 0 1 15.551028 30.270108 126.3921 126.3921 0 0 0-0.447972 10.23936c0 4.351728 0.31998 8.31948 0.703956 12.47922a31.998 31.998 0 0 1-15.935004 30.71808l-27.1983 15.551028 5.631648 13.503156 30.654084-8.31948a32.445972 32.445972 0 0 1 32.95794 10.303356c4.7997 5.75964 10.23936 11.135304 15.999001 15.935004a31.998 31.998 0 0 1 10.751328 32.95794l-8.127492 30.71808 13.75914 5.631649 16.382976-27.838261c6.271608-10.751328 18.366852-16.63896 30.590088-15.67902 7.295544 0.63996 14.71908 0.575964 21.75864-0.127992 12.7992-1.151928 24.31848 4.863696 30.654084 15.551028l16.31898 27.518281 13.823136-5.759641-8.255484-30.846072a31.998 31.998 0 0 1 10.23936-32.63796c5.695644-4.735704 11.007312-10.047372 15.67902-15.807012a31.422036 31.422036 0 0 1 33.021936-10.943316l30.846072 7.9995 5.631648-13.887132-28.094244-16.766952a31.998 31.998 0 0 1-15.487032-30.270108c0.31998-3.327792 0.511968-6.71958 0.511968-9.983376zM714.803325 149.614649a49.148928 49.148928 0 0 1-34.749828-83.83476c18.55884-18.55884 50.940816-18.55884 69.499656 0a49.148928 49.148928 0 0 1-34.749828 83.83476zM325.387663 555.989251h317.420162a31.998 31.998 0 1 1 0 63.996h-317.420162a31.998 31.998 0 1 1 0-63.996zM215.890507 588.051247m-31.998 0a31.998 31.998 0 1 1 63.996 0 31.998 31.998 0 1 1-63.996 0ZM325.387663 416.029998h317.420162a31.998 31.998 0 1 1 0 63.996h-317.420162a31.998 31.998 0 1 1 0-63.996zM215.890507 448.027998m-31.998 0a31.998 31.998 0 1 1 63.996 0 31.998 31.998 0 1 1-63.996 0ZM460.8032 340.00275H325.387663a31.998 31.998 0 1 1 0-63.996H460.8032a31.998 31.998 0 1 1 0 63.996zM215.890507 308.068746m-31.998 0a31.998 31.998 0 1 1 63.996 0 31.998 31.998 0 1 1-63.996 0Z"  horiz-adv-x="1024" />

    
    <glyph glyph-name="kaiju" unicode="&#58919;" d="M624 109.824a32 32 0 0 1 32 32V457.792a32 32 0 1 1-64 0v-315.968a32 32 0 0 1 32-32zM404.032 109.824a32 32 0 0 1 32 32V625.792a32 32 0 1 1-64 0v-483.968a32 32 0 0 1 32-32zM896 128H857.984V803.84c0 50.688-43.008 91.968-96 91.968h-128a32 32 0 0 1-32-32c0-48.512-43.008-88-96-88S409.984 815.36 409.984 863.808a32 32 0 0 1-32 32h-128c-52.928 0-96-41.28-96-91.968V128h-25.984c-70.528 0-128-57.408-128-128s57.472-128 128-128h768c70.592 0 128 57.408 128 128s-57.408 128-128 128zM217.984 803.84c0 15.168 14.656 27.968 32 27.968h99.584c15.488-68.48 79.744-120 156.416-120s140.992 51.52 156.48 120H761.984c17.408 0 32-12.8 32-27.968V32h-576V803.84zM896-64h-768a64.064 64.064 0 0 0 0 128H153.984v-32h-10.24a32 32 0 1 1 0-64h726.592a32 32 0 1 1 0 64H857.984V64h38.016a64.064 64.064 0 0 0 0-128z"  horiz-adv-x="1024" />

    
    <glyph glyph-name="linggou" unicode="&#58920;" d="M1009.28 663.488c-20.288 31.488-58.688 48.832-108.16 48.832H294.72C260.544 848.512 164.608 848.64 127.104 848.64H32a32 32 0 1 1 0-64h95.104c38.656 0 91.52 0 110.144-109.696l23.168-139.072c16-96.256 31.744-190.912 41.088-240.384v-0.192h0.064l0.128-0.64c8.32-43.584 30.4-159.36 140.16-159.36h389.248a32 32 0 1 1 0 64H441.792c-28.416 0-51.264 13.376-67.968 69.376h398.72c71.232 0 125.12 33.024 151.808 92.992l7.04 15.808c18.88 42.432 53.056 119.488 78.848 175.872 18.688 40.96 18.304 80-1.024 110.144z m-57.28-83.52c-25.856-56.576-60.16-133.952-79.104-176.512l-7.04-15.808c-16.448-36.992-46.912-55.04-93.312-55.04H360.192L306.688 648.32h594.432c26.56 0 46.336-7.04 54.272-19.392 7.168-11.2 5.952-28.544-3.392-48.96zM441.792 4.672m-85.312 0a85.312 85.312 0 1 1 170.624 0 85.312 85.312 0 1 1-170.624 0ZM783.104 4.672m-85.312 0a85.312 85.312 0 1 1 170.624 0 85.312 85.312 0 1 1-170.624 0Z"  horiz-adv-x="1024" />

    
    <glyph glyph-name="zancun" unicode="&#58921;" d="M864 896h-704A160.192 160.192 0 0 1 0 736v-704C0-56.192 71.744-128 160-128h704c88.256 0 160 71.808 160 160v704C1024 824.192 952.256 896 864 896zM231.936 832h560.064v-349.952a38.912 38.912 0 0 0-38.848-38.848H270.72a38.912 38.912 0 0 0-38.848 38.848V832zM960 32c0-52.928-43.072-96-96-96h-704c-52.928 0-96 43.072-96 96v704C64 788.928 107.072 832 160 832h7.936v-349.952c0-56.704 46.08-102.848 102.848-102.848h482.368a103.04 103.04 0 0 1 102.848 102.848V832h8c52.928 0 96-43.072 96-96v-704zM708.48 507.2a32 32 0 0 1 32 32V757.12a32 32 0 1 1-64 0v-217.984a32 32 0 0 1 32-32z"  horiz-adv-x="1024" />

    
    <glyph glyph-name="fenfa" unicode="&#58922;" d="M1021.568 153.6a32 32 0 0 1-6.976 10.432l-127.936 127.936a32 32 0 1 1-45.248-45.312l73.344-73.344h-154.88c-56.192 0-108.928 51.776-164.736 106.56C557.12 317.184 515.968 356.992 469.184 384c46.784 27.008 87.936 66.816 125.952 104.128 55.808 54.784 108.544 106.56 164.736 106.56h154.88l-73.344-73.344a32 32 0 1 1 45.248-45.312l128 128a32 32 0 0 1 0 45.312l-128 127.936a32 32 0 1 1-45.248-45.248l73.408-73.344h-154.944c-82.368 0-147.008-63.488-209.536-124.8C488.576 473.216 430.272 416 359.872 416H32a32 32 0 1 1 0-64h327.872c70.4 0 128.704-57.28 190.464-117.824 62.528-61.376 127.168-124.8 209.536-124.8h154.88l-73.344-73.408a32 32 0 1 1 45.248-45.248l128 128a32 32 0 0 1 6.912 34.816z"  horiz-adv-x="1024" />

    
    <glyph glyph-name="queding" unicode="&#58923;" d="M995.2 709.952l-46.4 46.4c-37.312 37.248-102.4 37.312-139.776 0L412.992 360.32a32.896 32.896 0 0 0-46.528 0L214.976 511.808a99.008 99.008 0 0 1-139.712 0l-46.336-46.464a98.88 98.88 0 0 1 0-139.712l290.944-291.008c19.2-19.2 44.544-28.8 69.888-28.8 25.28 0 50.56 9.6 69.824 28.8L995.2 570.24c38.4 38.528 38.4 101.12 0 139.712z m-46.656-93.12L412.992 81.28c-12.8-12.8-33.728-12.8-46.528 0L75.456 372.224c-12.8 12.8-12.8 33.728 0 46.592l46.4 46.336a32.768 32.768 0 0 0 46.592 0l151.424-151.424a98.88 98.88 0 0 1 139.712 0L855.68 709.76a33.792 33.792 0 0 0 46.592 0l46.336-46.4c12.8-12.8 12.8-33.728 0-46.528z"  horiz-adv-x="1024" />

    
    <glyph glyph-name="quxiao" unicode="&#58924;" d="M765.879965 362.628859a30.640316 30.640316 0 0 0 0 43.241866l230.793863 230.729895c35.757697 35.821664 35.757697 94.031867 0 129.853531L893.878446 869.121598a91.856981 91.856981 0 0 1-129.853531 0L533.422954 638.455671a30.576349 30.576349 0 0 0-43.241865 0L259.387226 869.121598a91.856981 91.856981 0 0 1-129.789564 0L26.866248 766.390184c-35.757697-35.821664-35.757697-94.031867 0-129.789564l230.793862-230.729895a30.512381 30.512381 0 0 0 0-43.241866L26.802281 131.898964c-35.757697-35.821664-35.757697-94.031867 0-129.725596l102.795381-102.795382c35.821664-35.821664 94.031867-35.821664 129.853531 0l230.665928 230.729895a30.704283 30.704283 0 0 0 43.241866 0l230.729895-230.729895c17.271159-17.271159 40.363339-26.866248 64.862798-26.866248s47.591639 9.595089 64.926766 26.866248l102.795382 102.795382c35.757697 35.757697 35.757697 93.9679 0 129.725596l-230.793863 230.729895z m187.48803-317.277593l-102.795382-102.731415a31.216021 31.216021 0 0 0-43.241865 0l-230.729896 230.729896A91.473177 91.473177 0 0 1 511.738054 200.215994c-23.475983 0-47.015934-8.955416-64.862798-26.866247l-230.729895-230.729896a30.576349 30.576349 0 0 0-43.241866 0l-102.795382 102.795382a30.704283 30.704283 0 0 0 0 43.241866l230.729896 230.729895c17.271159 17.335127 26.866248 40.427306 26.866247 64.862798s-9.595089 47.591639-26.866247 64.862798L70.108113 679.906453a30.704283 30.704283 0 0 0 0 43.241865l102.795382 102.795382a30.576349 30.576349 0 0 0 43.241866 0l230.729895-230.793862c35.821664-35.821664 94.031867-35.693729 129.725596 0l230.729896 230.793862a30.640316 30.640316 0 0 0 43.241865 0l102.795382-102.795382a30.704283 30.704283 0 0 0 0-43.241865l-230.729895-230.793863c-35.757697-35.757697-35.757697-93.903933 0-129.725596l230.729895-230.729895a30.704283 30.704283 0 0 0 0-43.241866z"  horiz-adv-x="1024" />

    
    <glyph glyph-name="xiayibu" unicode="&#58925;" d="M0 384a32 32 0 0 1 32-32h882.816l-265.344-265.28a32 32 0 1 1 45.312-45.248l319.808 319.872a32 32 0 0 1 0 45.312l-319.808 319.872a32 32 0 1 1-45.312-45.248L914.816 416H32A32 32 0 0 1 0 384z"  horiz-adv-x="1024" />

    
    <glyph glyph-name="tiaoguo" unicode="&#58926;" d="M496.192 484.224c-77.504 0-140.608-63.04-140.608-140.544s63.104-140.544 140.608-140.544 140.544 63.04 140.544 140.544-63.104 140.544-140.544 140.544z m0-217.088A76.608 76.608 0 1 0 572.736 343.68c0-42.24-34.368-76.544-76.544-76.544zM1021.568 331.456a32 32 0 0 1-6.976 34.88l-127.936 127.936a32 32 0 1 1-45.248-45.248l73.344-73.344H734.72a241.024 241.024 0 0 1-238.528 208.64 241.024 241.024 0 0 1-238.592-208.64H32a32 32 0 1 1 0-64h255.488a32 32 0 0 1 32 32 176.896 176.896 0 0 0 176.64 176.64 176.832 176.832 0 0 0 176.64-176.64 32 32 0 0 1 32-32h210.048l-73.408-73.408a32 32 0 1 1 45.248-45.248l128 128a32 32 0 0 1 6.912 10.432z"  horiz-adv-x="1024" />

    
    <glyph glyph-name="shangyibu" unicode="&#58927;" d="M992 416H109.184l265.344 265.28a32 32 0 1 1-45.312 45.248L9.408 406.656a32 32 0 0 1 0-45.312l319.808-319.872a31.872 31.872 0 0 1 45.312 0 32 32 0 0 1 0 45.248L109.184 352H992a32 32 0 1 1 0 64z"  horiz-adv-x="1024" />

    
    <glyph glyph-name="xiazai" unicode="&#58928;" d="M489.536 169.792a32 32 0 0 1 45.312 0l282.432 282.432a32 32 0 1 1-45.248 45.248l-227.84-227.84V863.616a32 32 0 1 1-64 0v-593.984l-227.84 227.84a32 32 0 1 1-45.248-45.248l282.432-282.432zM927.936 320.576h-142.4a32 32 0 1 1 0-64h142.4a32 32 0 0 0 32-32v-256.064a32 32 0 0 0-32-32H96a32 32 0 0 0-32 32v256a32 32 0 0 0 32 32H229.76a32 32 0 1 1 0 64H96c-52.928 0-96-43.008-96-96v-256c0-52.928 43.072-96 96-96H928c52.928 0 96 43.072 96 96v256c0 52.992-43.072 96-96 96zM730.624 96.512m-32 0a32 32 0 1 1 64 0 32 32 0 1 1-64 0ZM858.624 96.512m-32 0a32 32 0 1 1 64 0 32 32 0 1 1-64 0Z"  horiz-adv-x="1024" />

    
    <glyph glyph-name="jianceshuikongxinxi" unicode="&#58929;" d="M251.584 755.84H135.424a32 32 0 1 1 0-64.064h116.16a32 32 0 1 1 0 64.064zM487.872 796.864a32 32 0 0 1-32-32v-50.048a32 32 0 1 1 64 0V764.8a32 32 0 0 1-32 32zM576 796.864a32 32 0 0 1-32.064-32v-50.048a32 32 0 1 1 64.064 0V764.8a32 32 0 0 1-32 32zM664.064 796.864a32 32 0 0 1-32-32v-50.048a32 32 0 1 1 64 0V764.8a32 32 0 0 1-32 32zM251.584 534.208H135.424a32 32 0 1 1 0-64h116.16a32 32 0 1 1 0 64zM487.872 575.296a32 32 0 0 1-32-32v-50.112a32 32 0 1 1 64 0v50.048a32 32 0 0 1-32 32zM576 575.296a32 32 0 0 1-32.064-32v-50.112a32 32 0 1 1 64.064 0v50.048a32 32 0 0 1-32 32zM664.064 575.296a32 32 0 0 1-32-32v-50.112a32 32 0 1 1 64 0v50.048a32 32 0 0 1-32 32zM251.584 312.64H135.424a32 32 0 1 1 0-64h116.16a32 32 0 1 1 0 64zM1011.072-73.28l-140.416 140.416a207.68 207.68 0 0 1 41.024 123.456c0 70.528-35.2 132.672-88.768 170.688V864a32 32 0 0 1-32 32.064H35.52a32 32 0 0 1-32.064-32V199.104a32 32 0 0 1 32-32h345.6v-58.368a120.512 120.512 0 0 1-83.84-83.904H35.456a32 32 0 1 1 0-64.128h261.76C311.296-90.24 357.76-128 413.12-128a120.96 120.96 0 0 1 120.832 120.832c0 55.488-37.76 101.824-88.768 115.968v58.368h49.6c11.84-104.448 99.712-186.24 207.232-186.24 46.208 0 88.576 15.552 123.2 40.96l140.48-140.48a31.936 31.936 0 0 1 45.312 0 32 32 0 0 1 0 45.312z m-541.12 66.112a56.832 56.832 0 0 0-113.472 0 56.832 56.832 0 0 0 113.472 0zM67.584 610.304h691.2v-157.44h-691.2v157.44z m0 221.632h691.2v-157.568h-691.2V832z m0-443.2H636.8a209.472 209.472 0 0 1-140.224-157.504H67.584V388.736z m488.96-198.144c0 80.256 65.28 145.536 145.536 145.536s145.536-65.28 145.536-145.536-65.28-145.536-145.536-145.536-145.536 65.28-145.536 145.536z"  horiz-adv-x="1024" />

    
    <glyph glyph-name="chakanxiangqing" unicode="&#58930;" d="M896-64a56.192 56.192 0 0 0 0 112.192 31.936 31.936 0 0 1 32 32V800C928 852.928 884.8 896 832 896H192c-52.992 0-96-43.072-96-96v-832c0-52.928 43.008-96 96-96H896a32 32 0 1 1 0 64zM408.256 832v-179.392l-40.64 32a31.872 31.872 0 0 1-39.68 0l-40.512-32V832h120.832zM191.936 832h31.36v-245.312a32 32 0 0 1 51.84-25.152l72.576 57.216 72.64-57.216a32 32 0 1 1 51.84 25.152V832h359.744a32 32 0 0 0 32-32v-687.808H216.064c-20.352 0-39.296-5.568-56.128-14.528V800A32 32 0 0 0 192 832z m-32-839.936c0 30.976 25.216 56.128 56.128 56.128h574.336c-8.96-16.768-14.528-35.712-14.528-56.064 0-20.352 5.568-39.296 14.528-56.128H216.064a56.192 56.192 0 0 0-56.128 56.064zM255.36 168.512h522.624a32 32 0 0 1 32 32V357.12a32 32 0 0 1-32 32H255.36a32 32 0 0 1-32-32v-156.672a32 32 0 0 1 32-32z m32 156.672h458.624v-92.672H287.36V325.12z"  horiz-adv-x="1024" />

    
    <glyph glyph-name="fengxianguanli" unicode="&#58931;" d="M1018.33745 881.392438a33.151005 33.151005 0 0 1-42.366729 11.071668L399.796006 603.128786a33.087007 33.087007 0 0 1-0.767977-58.878234l92.733218-49.278521L252.792416 344.960531a33.087007 33.087007 0 0 1 2.047939-57.214283l108.412747-57.662271-351.605451-299.767007a33.087007 33.087007 0 0 1 37.566873-54.142375l591.726248 328.31015a33.151005 33.151005 0 0 1-0.511985 58.238253l-94.717158 50.366489L794.98415 473.596672a33.087007 33.087007 0 0 1-2.559923 57.214284l-81.917542 42.686719 302.070938 264.440067a33.151005 33.151005 0 0 1 5.759827 43.454696z m-387.828365-289.911302a33.151005 33.151005 0 0 1 6.463806-54.270372l74.301771-38.782837-248.952532-160.251192a33.151005 33.151005 0 0 1 2.367929-57.086288l90.813276-48.254552-248.952532-138.107857 136.699899 116.476506a33.087007 33.087007 0 0 1-5.951821 54.462366L336.437907 319.361299l238.968831 150.075498a33.087007 33.087007 0 0 1-2.047939 57.214283l-86.6534 46.078618 286.903393 143.99568-143.099707-125.180244zM186.746398 341.696629a32.959011 32.959011 0 0 1 17.535474 5.119847l141.179764 88.509344a33.087007 33.087007 0 1 1-35.198944 56.126316L169.082928 402.878794a33.087007 33.087007 0 0 1 17.66347-61.182165zM84.797456 281.34644c3.967881-1.919942 7.935762-2.623921 12.543624-2.623922 8.639741 0 17.279482 3.263902 23.167305 9.919703a33.854984 33.854984 0 0 1 9.9837 23.167305 33.790986 33.790986 0 0 1-9.9837 23.167305 32.767017 32.767017 0 0 1-35.710929 7.295781 23.67929 23.67929 0 0 1-10.623681-7.295781 31.167065 31.167065 0 0 1-9.919703-23.167305c0-8.575743 3.3279-17.215484 9.919703-23.167305a23.67929 23.67929 0 0 1 10.623681-7.295781zM705.898823 205.572713l-135.035949-84.66946a33.087007 33.087007 0 1 1 35.198944-56.062318l134.971951 84.66946a33.087007 33.087007 0 1 1-35.198944 56.062318zM781.544554 258.819115c-6.6558-5.951821-9.919702-14.591562-9.919703-23.167305s3.263902-17.279482 9.919703-23.807285a33.023009 33.023009 0 0 1 23.167305-9.34372 33.087007 33.087007 0 0 1 23.231303 9.34372c6.591802 6.591802 9.919702 15.231543 9.919702 23.807285s-3.3279 17.215484-9.919702 23.167305a33.215004 33.215004 0 0 1-46.398608 0z"  horiz-adv-x="1024" />

    
    <glyph glyph-name="lijijinru" unicode="&#58932;" d="M952.317523 886.144055a59.967663 59.967663 0 0 1-30.527828 9.727946L921.149699 896H368.00081c-51.327711 0-93.183476-41.791765-93.183476-93.183476v-114.047358a31.99982 31.99982 0 1 1 63.99964 0V802.816524c0 16.06391 13.119926 29.183836 29.183836 29.183836h383.677842l-132.607254-55.807686c-37.37579-15.743911-65.535631-56.447682-65.535632-94.847467v-624.124489H368.00081a29.247835 29.247835 0 0 0-29.183836 29.183836v116.863343a31.99982 31.99982 0 1 1-63.99964 0v-116.863343c0-51.391711 41.855765-93.183476 93.183476-93.183476H553.599766v-58.68767c0-22.271875 9.599946-41.471767 26.431851-52.671703A60.47966 60.47966 0 0 1 613.759428-127.99424c9.727945 0 20.031887 2.111988 30.07983 6.399964l269.438485 113.407362c37.37579 15.743911 65.535631 56.511682 65.535631 94.847467V833.536351c0 22.271875-9.599946 41.407767-26.495851 52.607704z m-63.871641-835.387301L617.599406-65.466592V681.409207c0 11.135937 11.711934 29.631833 26.367852 35.839798L911.357754 832.00036h3.45598v-745.339807c0-11.199937-11.775934-29.695833-26.367852-35.839799zM351.360904 335.811151a31.99982 31.99982 0 1 1 45.247745-45.247745l127.99928 127.99928a31.99982 31.99982 0 0 1 0 45.311745l-127.99928 127.99928a31.99982 31.99982 0 1 1-45.247745-45.311745l73.343587-73.343588h-347.518045a31.99982 31.99982 0 1 1 0-63.99964h347.518045L351.360904 335.811151zM712.190874 444.930537a31.99982 31.99982 0 0 1-31.99982-31.99982v-99.711439a31.99982 31.99982 0 1 1 63.99964 0V412.930717a31.99982 31.99982 0 0 1-31.99982 31.99982z"  horiz-adv-x="1024" />

    
    <glyph glyph-name="shuikongshebeiguanli" unicode="&#58933;" d="M1024 640c0 52.928-43.072 96-96 96h-832C43.072 736 0 692.928 0 640v-192c0-24.704 9.6-46.976 24.96-64-15.36-17.024-24.96-39.296-24.96-64v-192c0-52.928 43.072-96 96-96h832c52.928 0 96 43.072 96 96V320c0 24.704-9.6 46.976-24.96 64 15.36 17.024 24.96 39.296 24.96 64V640zM64 640a32 32 0 0 0 32 32h832a32 32 0 0 0 32-32v-192a32 32 0 0 0-32-32h-832A32 32 0 0 0 64 448V640z m896-512a32 32 0 0 0-32-32h-832A32 32 0 0 0 64 128V320a32 32 0 0 0 32 32h832a32 32 0 0 0 32-32v-192zM168.128 431.936a32 32 0 0 1 32 32v160a32 32 0 1 1-64 0v-160a32 32 0 0 1 32-32zM256.128 431.936a32 32 0 0 1 32 32v160a32 32 0 1 1-64 0v-160a32 32 0 0 1 32-32zM344.128 431.936a32 32 0 0 1 32 32v160a32 32 0 1 1-64 0v-160a32 32 0 0 1 32-32zM698.304 465.344a32 32 0 0 1 32 32v40.96a32 32 0 1 1-64 0v-40.96a32 32 0 0 1 32-32zM837.952 465.344a32 32 0 0 1 32 32v40.96a32 32 0 1 1-64 0v-40.96a32 32 0 0 1 32-32zM168.128 335.936a32 32 0 0 1-32-32v-160a32 32 0 1 1 64 0v160a32 32 0 0 1-32 32zM256.128 335.936a32 32 0 0 1-32-32v-160a32 32 0 1 1 64 0v160a32 32 0 0 1-32 32zM344.128 335.936a32 32 0 0 1-32-32v-160a32 32 0 1 1 64 0v160a32 32 0 0 1-32 32zM698.304 250.24a32 32 0 0 1-32-32v-40.896a32 32 0 1 1 64 0v40.96a32 32 0 0 1-32 32zM837.952 250.24a32 32 0 0 1-32-32v-40.896a32 32 0 1 1 64 0v40.96a32 32 0 0 1-32 32z"  horiz-adv-x="1024" />

    
    <glyph glyph-name="quanxianguanli" unicode="&#58934;" d="M93.248 456.704v-387.84c0-34.752 28.16-62.976 62.848-62.976h85.12a62.976 62.976 0 0 1 62.912 62.912V456.704a62.976 62.976 0 0 1-62.912 62.912H156.16a62.976 62.976 0 0 1-62.848-62.912z m64-387.84l-0.512 161.92h83.392v-160.832l-82.88-1.152z m82.88 225.92H156.544L156.16 455.552l84.032 1.152v-161.92zM184.32 537.024a31.936 31.936 0 0 1 45.184 2.88 32.128 32.128 0 0 1-2.88 45.248 97.472 97.472 0 0 0-33.536 73.92 98.304 98.304 0 0 0 154.88 80.32c1.152-0.832 2.496-1.024 3.712-1.664-2.048-7.104-4.48-14.144-4.48-21.888a79.808 79.808 0 1 1 79.744 79.808c-13.312 0-25.344-4.16-36.416-9.984-1.728 2.112-3.264 4.288-5.568 5.952a161.024 161.024 0 0 1-93.696 29.824A162.432 162.432 0 0 1 184.32 537.024z m242.688 194.56c8.64 0 15.744-7.04 15.744-15.744 0-17.408-31.488-17.344-31.488 0 0 8.704 7.04 15.744 15.744 15.744zM1013.12 292.224l-293.504 263.68A244.352 244.352 0 0 1 389.376 871.552a32.064 32.064 0 0 1 27.776-57.792 180.224 180.224 0 0 0 257.92-162.368 180.224 180.224 0 0 0-179.84-180.16 180.224 180.224 0 0 0-175.296 221.376 32 32 0 1 1-62.336 14.464c-4.096-17.664-6.08-35.84-6.208-54.016h-4.48a32 32 0 1 1 0-64h13.376a243.2 243.2 0 0 1 72.768-118.784v-501.824a32 32 0 0 0-32-32h-204.8a32 32 0 0 0-32 32V557.056a32 32 0 0 0 32 32 32 32 0 1 1 0 64.064c-52.928 0-96-43.072-96-96.064v-588.544c0-52.992 43.072-96.128 96-96.128h204.8c52.928 0 96 43.136 96 96.128V428.16c30.08-13.312 63.168-20.992 98.112-20.992 42.88 0 82.624 12.16 117.696 31.616l71.04-74.88c6.848-7.168 16.64-10.496 26.368-9.792l25.472 2.56v-24.96c0-8.96 3.712-17.408 10.24-23.488l55.168-51.2a32.128 32.128 0 0 1 25.28-8.32l17.728 1.92v-22.976a32 32 0 0 1 10.688-23.872l58.112-51.968a32 32 0 0 1 28.16-7.36l57.536 12.736a32 32 0 0 1 25.088 31.232V268.416a32.064 32.064 0 0 1-10.624 23.808z m-248.512 131.712l-45.056-4.48-54.4 57.344c7.424 7.296 13.76 15.488 20.288 23.68l85.12-76.48a38.848 38.848 0 0 1-5.952 0z m111.552-105.344a33.856 33.856 0 0 1-3.52-0.192l-38.72-4.352-34.176 31.68v46.336a32.256 32.256 0 0 1-0.64 6.272l95.104-85.376a31.872 31.872 0 0 1-18.048 5.632z m83.584-104.384l-16.384-3.648-35.2 31.488v44.48a32 32 0 0 1-7.68 20.864l59.264-53.248v-39.936z"  horiz-adv-x="1024" />

    
    <glyph glyph-name="kehuguanli" unicode="&#58935;" d="M845.76 302.272c-72.96 136.512-205.504 162.368-249.728 167.296a220.416 220.416 0 0 1 136.192 203.392C732.16 794.368 633.408 893.12 512 893.12s-220.16-98.752-220.16-220.16c0-91.648 56.32-170.24 136.128-203.392-44.16-4.928-176.704-30.784-249.728-167.296-82.048-153.28-76.16-308.48-75.904-315.008a32 32 0 0 1 19.008-27.904c7.872-3.392 193.6-84.48 390.656-84.48s382.784 81.088 390.656 84.48a32 32 0 0 1 19.008 27.904c0.256 6.528 6.144 161.728-75.904 315.008zM355.84 672.96c0 86.08 70.08 156.16 156.224 156.16s156.16-70.08 156.16-156.16S598.208 516.8 512 516.8s-156.16 70.016-156.16 156.16zM512 452.8c14.08 0 27.776 1.536 41.152 4.096L512 415.744l-41.152 41.152c13.376-2.56 27.072-4.16 41.152-4.16z m0-181.312l47.36-138.496-47.36-51.008-47.36 51.008L512 271.488z m0-332.672c-148.352 0-294.464 51.392-345.6 71.36 1.28 44.16 10.752 154.432 68.288 261.888 57.088 106.688 160.32 129.024 196.928 133.568l43.648-43.648-77.312-226.368a32 32 0 0 1 6.784-32.128l83.84-90.24a32 32 0 0 1 46.912 0l83.776 90.24a32 32 0 0 1 6.784 32.128L548.736 361.984l43.648 43.648c36.608-4.544 139.84-26.88 196.928-133.568 57.28-106.88 66.88-217.6 68.288-261.952-51.2-19.968-197.312-71.296-345.6-71.296z"  horiz-adv-x="1024" />

    
    <glyph glyph-name="qianzhanggongdan" unicode="&#58936;" d="M497.408 746.624a32 32 0 1 1-12.8 62.72 136.704 136.704 0 0 1-108.8-133.504c0-29.632 9.344-57.792 27.008-81.408a32 32 0 1 1 51.2 38.272 72.448 72.448 0 0 0 43.392 113.92zM824.704 165.824h-0.064c-40.832 0-98.368 17.92-143.296 44.416-47.552 28.16-74.816 61.056-74.816 90.24l0.192 131.136c0 26.624 0 29.44 46.336 75.84a219.328 219.328 0 0 1 78.592 168.384C731.648 796.928 633.088 895.488 512 895.488S292.352 796.928 292.352 675.84c0-65.152 28.736-126.528 76.608-166.528 48.512-48.448 48.512-51.136 48.512-83.648v-125.056c0-68.16-138.048-134.784-218.176-134.784-40.64 0-73.728-33.024-73.728-73.664v-62.592a32 32 0 0 1 32-32h9.728v-93.056a32 32 0 0 1 32-32h625.408a32 32 0 0 1 32 32v93.056h9.728a32 32 0 0 1 32 32v62.592c0 40.64-33.088 73.664-73.728 73.664zM189.568 92.16c0 5.312 4.416 9.664 9.728 9.664 96.896 0 282.176 77.44 282.176 198.784V425.664c0 53.632-8.832 70.464-69.376 130.816a155.328 155.328 0 0 0-55.68 119.36c0 85.76 69.76 155.648 155.584 155.648S667.648 761.6 667.648 675.84c0-46.08-20.352-89.6-57.792-121.216-57.728-57.664-67.136-74.88-67.136-123.008l-0.192-131.008c0-53.312 37.76-104.96 106.24-145.472 55.616-32.896 122.944-53.312 175.872-53.312 5.376 0 9.792-4.352 9.792-9.664v-30.592H189.568v30.592z m603.136-155.648H231.296v61.056h561.408v-61.056z"  horiz-adv-x="1024" />

    
    <glyph glyph-name="shangpinguanli" unicode="&#58937;" d="M351.68521 535.69171l64.957889-32.254952a32.510943 32.510943 0 0 1 28.799064 58.110112l-64.957889 32.254951a32.510943 32.510943 0 0 1-28.799064-58.174109zM206.921915 140.824543l-65.021887 32.190954a32.446945 32.446945 0 1 1-28.799064-58.110111l64.957889-32.190954a32.510943 32.510943 0 0 1 28.799064 58.110111zM1011.311772 325.266549c0 0.447985-0.383988 0.831973-0.383987 1.279958a32.062958 32.062958 0 0 1-4.415857 15.103509c-0.959969 1.599948-2.559917 2.559917-3.839875 4.031869-2.175929 2.495919-3.839875 5.247829-6.719781 7.039772-0.575981 0.383988-1.279958 0.255992-1.85594 0.575981-0.511983 0.255992-0.703977 0.831973-1.279959 1.087964l-209.785182 100.796725V745.86088a32.190954 32.190954 0 0 1-4.671848 16.383467c-0.959969 1.663946-2.559917 2.559917-3.839875 4.031869-2.111931 2.559917-3.839875 5.375825-6.783779 7.167767-0.511983 0.31999-1.151963 0.255992-1.663946 0.511983-0.447985 0.255992-0.639979 0.767975-1.151963 1.023967L526.335534 892.672108a32.510943 32.510943 0 0 1-29.183051-0.255992L268.807904 774.723941c-0.31999-0.191994-0.511983-0.639979-0.831973-0.767975-0.383988-0.191994-0.831973-0.127996-1.151963-0.383987-3.007902-1.791942-4.92784-4.735846-7.103769-7.359761-1.279958-1.407954-2.943904-2.367923-3.903873-3.967871a32.254952 32.254952 0 0 1-4.60785-16.383467v-290.294566L31.631612 354.641594c-0.639979-0.255992-0.831973-0.895971-1.407954-1.21596-0.639979-0.31999-1.343956-0.191994-1.919938-0.63998-2.623915-1.53595-4.159865-4.159865-6.207798-6.335794-1.471952-1.599948-3.199896-2.687913-4.351859-4.479854a31.99896 31.99896 0 0 1-3.839875-12.351599c-0.191994-1.279958-1.151963-2.367923-1.21596-3.775877l0.127995-0.319989-0.127995-0.383988v-311.029892c0-12.543592 7.167767-23.935222 18.431401-29.311047l228.28058-109.564439a32.126956 32.126956 0 0 1 28.607071 0.255992l213.753053 107.452507 224.440705-107.708499a32.126956 32.126956 0 0 1 28.607071 0.255992l238.584246 119.868104a32.446945 32.446945 0 0 1 17.919417 29.055056V325.138553v0.063998 0.063998zM544.446945 608.00936l173.690356 85.629217v-238.072263L544.446945 375.952902V608.00936zM479.553055 376.784874L316.166365 455.182327v237.432283l163.322692-84.221263v-231.608473z m260.983518-132.987677L586.109591 323.474607l124.091967 57.022147 40.062698 18.431401 154.426982-74.17359-164.154665-80.957368zM512.31999 827.202236l164.858642-81.277359-164.858642-81.341356-157.690875 81.277359 157.690875 81.277358zM283.463427 398.928155L437.762413 324.754565 273.735744 243.861195 119.244765 323.474607l164.218662 75.517546zM77.646117 271.892284l163.322692-84.221263v-231.608473l-163.322692 78.397452v237.432284z m228.216582-84.605251l173.690356 85.629217v-228.472574L305.862699-42.849487v230.13652z m238.584246 84.605251l163.322692-84.221263v-231.608473l-163.322692 78.397452v237.432284z m401.906938-227.512606l-173.626357-87.229165v230.13652l173.626357 85.629217v-228.472574zM673.722744 140.824543l-64.957889 32.190954a32.446945 32.446945 0 1 1-28.863062-58.110111l64.957889-32.190954a32.510943 32.510943 0 0 1 28.799064 58.110111z"  horiz-adv-x="1024" />

    
    <glyph glyph-name="zhucemagongju" unicode="&#58938;" d="M990.72 811.52H33.28a32 32 0 0 1-32-32v-791.04a32 32 0 0 1 32-32h957.44a32 32 0 0 1 32 32V779.52a32 32 0 0 1-32 32z m-32-64v-102.592H65.28V747.52h893.44zM65.28 20.48V580.992h893.44v-560.384H65.28zM104 666.88a33.216 33.216 0 0 1 35.2 6.4c5.76 6.4 9.6 14.72 9.6 23.04 0 8.32-3.84 16.64-9.6 22.4a33.664 33.664 0 0 1-35.2 7.04 32 32 0 0 1-19.2-29.44c0-8.32 3.2-16.64 8.96-23.04 3.2-2.56 6.4-5.12 10.24-6.4zM187.84 666.88a32 32 0 0 1 34.56 6.4c5.76 6.4 9.6 14.72 9.6 23.04 0 3.84-1.28 8.32-2.56 12.16-1.92 3.84-3.84 7.68-7.04 10.24-11.52 12.16-33.28 12.16-45.44 0-2.56-2.56-5.12-6.4-7.04-10.24-1.28-3.84-1.92-8.32-1.92-12.16 0-8.32 3.2-16.64 8.96-23.04 3.2-2.56 7.04-5.12 10.88-6.4zM283.2 664.32a32 32 0 0 1 22.4 8.96c6.4 6.4 9.6 14.72 9.6 23.04 0 8.32-3.2 16.64-9.6 22.4a32.896 32.896 0 0 1-45.44 0c-5.76-5.76-8.96-14.08-8.96-22.4 0-8.32 3.2-16.64 8.96-23.04 6.4-5.76 14.72-8.96 23.04-8.96zM262.272 520.064c-52.096 0-94.464-42.368-94.464-94.464s42.368-94.4 94.464-94.4c52.032 0 94.4 42.368 94.4 94.4s-42.368 94.464-94.4 94.464z m0-124.864a30.464 30.464 0 1 0 0 60.928 30.464 30.464 0 0 0 0-60.928zM761.728 520.064c-52.032 0-94.4-42.368-94.4-94.464s42.368-94.4 94.4-94.4c52.096 0 94.464 42.368 94.464 94.4s-42.368 94.464-94.464 94.464z m0-124.864a30.464 30.464 0 1 0 0.128 60.928 30.464 30.464 0 0 0-0.128-60.928zM512 270.336c-52.032 0-94.464-42.368-94.464-94.464S459.968 81.408 512 81.408s94.464 42.432 94.464 94.464S564.032 270.336 512 270.336z m0-124.928a30.464 30.464 0 1 0 0.064 60.992 30.464 30.464 0 0 0-0.064-60.992zM491.2 456.064h9.6v-92.864a32 32 0 1 1 64 0V488.064a32 32 0 0 1-32 32h-41.6a32 32 0 1 1 0-64zM283.072 270.336h-41.6a32 32 0 1 1 0-64h9.6v-92.928a32 32 0 1 1 64 0v124.928a32 32 0 0 1-32 32zM782.592 270.336h-41.6a32 32 0 1 1 0-64h9.6v-92.928a32 32 0 1 1 64 0v124.928a32 32 0 0 1-32 32z"  horiz-adv-x="1024" />

    
    <glyph glyph-name="chaxun" unicode="&#58939;" d="M423.808 896C190.08 896 0 705.92 0 472.192s190.08-423.744 423.808-423.744 423.744 190.08 423.744 423.744S657.472 896 423.808 896z m0-782.4c-197.76 0-358.592 160.896-358.592 358.592s160.832 358.592 358.592 358.592 358.592-160.832 358.592-358.592-160.896-358.592-358.592-358.592zM995.392 38.848l-92.16 92.224c-36.864 36.864-101.504 36.864-138.304 0-18.432-18.432-28.608-42.944-28.608-69.12s10.176-50.752 28.608-69.12l92.16-92.224c18.432-18.432 43.008-28.608 69.12-28.608 26.24 0 50.752 10.176 69.184 28.544 18.432 18.496 28.608 43.008 28.608 69.184 0 26.24-10.176 50.752-28.608 69.12z m-46.08-92.16a33.536 33.536 0 0 0-46.08 0l-92.16 92.224c-6.144 6.08-9.536 14.272-9.536 23.04a32.256 32.256 0 0 0 32.512 32.512c8.768 0 16.96-3.392 23.04-9.472l92.224-92.224c6.144-6.08 9.472-14.272 9.472-23.04s-3.328-16.96-9.472-23.04z"  horiz-adv-x="1024" />

    
    <glyph glyph-name="yichangfapiaorenzheng" unicode="&#58942;" d="M992 480A32 32 0 0 1 1024 512V640c0 52.928-41.28 96-92.032 96H92.032C41.216 736 0 692.928 0 640v-128a32 32 0 0 1 32-32c48.512 0 88-43.072 88-96S80.512 288 32 288a32 32 0 0 1-32-32v-128c0-52.928 41.28-96 92.032-96h839.936c50.752 0 92.032 43.072 92.032 96v128a32 32 0 0 1-32 32c-48.512 0-88 43.072-88 96s39.488 96 88 96z m-32-252.416V128c0-17.344-12.8-32-28.032-32H92.032C76.8 96 64 110.656 64 128v99.584C132.48 243.072 184 307.328 184 384S132.48 524.928 64 540.416V640c0 17.344 12.8 32 28.032 32h839.936c15.232 0 28.032-14.656 28.032-32v-99.584c-68.48-15.488-120-79.744-120-156.416s51.52-140.928 120-156.416zM769.344 415.616h-94.016c0.576 9.088 0.896 18.048 0.896 26.816 0 4.992-0.384 9.408-0.64 14.208l86.528 64.704a32 32 0 0 1-38.4 51.264l-59.136-44.288c-30.144 97.28-111.552 109.76-151.04 109.76-20.608 0-52.736-3.584-83.072-20.8-0.576-0.256-1.152-0.192-1.728-0.448-0.64-0.384-1.088-1.024-1.728-1.408-26.048-15.744-50.176-42.24-64-85.888l-57.6 43.072a32.064 32.064 0 0 1-38.4-51.2l84.544-63.36c-0.192-5.184-0.64-10.112-0.64-15.616 0-8.32 0.256-16.832 0.768-25.472v-1.28H259.84a32 32 0 1 1 0-64h99.968c2.56-14.4 5.76-28.736 9.472-42.816l-79.04-79.04a32 32 0 1 1 45.248-45.248l57.152 57.088c28.096-64 69.376-111.744 120.96-111.744 51.904 0 93.44 48.448 121.536 113.216l58.496-58.56a31.872 31.872 0 0 1 45.248 0 32 32 0 0 1 0 45.248l-80.576 80.64c3.584 13.568 6.528 27.328 9.088 41.152h101.952a32 32 0 1 1 0 64zM535.04 572.288l-11.456-22.592a32 32 0 1 1 57.088-28.928l9.152 18.048c11.136-16.384 18.752-40.96 21.12-75.776a292.736 292.736 0 0 1-194.688 0c2.112 31.808 8.512 55.552 18.24 71.744l7.04-14.016a32 32 0 1 1 57.088 28.928l-11.008 21.76a136.512 136.512 0 0 0 47.424 0.832z m-21.44-378.368c-35.392 0-83.584 96.832-95.68 200.896a225.92 225.92 0 0 0 191.36 0c-12.16-104.064-60.288-200.96-95.68-200.96z"  horiz-adv-x="1024" />

    
    <glyph glyph-name="weirenzhengfapiaoyujing" unicode="&#58943;" d="M992 479.872a32 32 0 0 1 32 32v128c0 52.928-41.28 96-92.032 96H92.032C41.216 735.872 0 692.8 0 639.872v-128a32 32 0 0 1 32-32c48.512 0 88-43.072 88-96s-39.488-96-88-96a32 32 0 0 1-32-32v-128c0-52.992 41.28-96 92.032-96h839.936c50.752 0 92.032 43.008 92.032 96v128a32 32 0 0 1-32 32c-48.512 0-88 43.008-88 96s39.488 96 88 96z m-32-252.48v-99.52c0-17.344-12.8-32-28.032-32H92.032c-15.232 0-28.032 14.656-28.032 32v99.52c68.48 15.488 120 79.744 120 156.48S132.48 524.8 64 540.288V639.872c0 17.28 12.8 32 28.032 32h839.936c15.232 0 28.032-14.72 28.032-32v-99.584c-68.48-15.488-120-79.744-120-156.416s51.52-140.992 120-156.48zM568.448 355.264a31.936 31.936 0 0 1-19.904 14.72v22.08a32 32 0 0 1-60.288 15.04l-34.816-65.28a32 32 0 0 1 21.632-46.4v-19.456a32 32 0 0 1 60.16-15.168l33.92 62.912a32 32 0 0 1-0.64 31.552zM679.872 226.368h-18.88V354.56c0 83.328-67.84 151.04-151.168 151.04S358.656 437.952 358.656 354.56v-128.192H339.84a32 32 0 1 1 0-64h340.032a32 32 0 1 1 0 64zM422.656 354.56c0 48 39.104 87.04 87.168 87.04 48 0 87.168-39.04 87.168-87.04v-128.192H422.656V354.56zM512 535.36a32 32 0 0 1 32 32v49.984a32 32 0 1 1-64 0v-49.984a32 32 0 0 1 32-32zM644.48 505.984a31.872 31.872 0 0 1 22.592 9.344l35.392 35.392a32 32 0 0 1-45.248 45.248l-35.392-35.392a32 32 0 0 1 22.656-54.592zM352.576 515.328a31.872 31.872 0 0 1 45.248 0 32 32 0 0 1 0 45.248l-35.328 35.392a32 32 0 1 1-45.248-45.248l35.328-35.392z"  horiz-adv-x="1024" />

    
    <glyph glyph-name="kaipiaoshenqing" unicode="&#58944;" d="M989.056 606.08A34.88 34.88 0 0 1 1024 640.896V741.696c0 47.04-36.864 85.312-82.112 85.312H280.768c-45.248 0-82.112-38.272-82.112-85.312v-92.16L85.568 562.304A158.912 158.912 0 0 1 35.2 446.272V134.4H34.944a34.88 34.88 0 0 1-34.944-34.944v-123.52a34.88 34.88 0 1 1 69.888 0v71.04l0.32-0.064h335.296a33.92 33.92 0 0 1 17.984 5.696v-76.672a34.88 34.88 0 1 1 69.888 0v123.52a34.88 34.88 0 0 1-34.944 34.944h-17.984v0.448c22.72 18.56 60.864 58.496 68.864 118.592h432.576c45.248 0 82.112 38.272 82.112 85.312V439.488a34.88 34.88 0 0 1-34.944 34.944c-32.768 0-59.52 29.504-59.52 65.792s26.752 65.792 59.52 65.792z m-547.84-330.112c0-59.456-51.776-92.416-53.76-93.632a34.88 34.88 0 0 1-16.896-29.888v-18.048H105.152V446.336c0 24.512 10.176 48.192 25.6 62.784l63.36 48.832v-98.688l-61.312-60.032 48.832-49.92s32.64 31.808 71.936 70.4l0.32 0.256c44.544 43.712 97.856 95.936 123.904 121.728 7.936-13.568 14.848-45.312 0.576-66.432-13.696-18.688-66.88-79.488-86.208-101.312a35.072 35.072 0 0 1-5.952-36.928 126.08 126.08 0 0 0-15.616-125.696 34.944 34.944 0 0 1 55.616-42.24c31.36 41.152 43.52 92.48 37.312 142.528h77.696v-35.648zM954.112 409.6v-70.848c0-8.192-5.76-15.424-12.224-15.424H511.04v23.232a34.88 34.88 0 0 1-34.944 34.944H391.36c13.056 15.232 25.28 29.76 34.688 41.6a33.92 33.92 0 0 1 18.304-5.952h217.472a34.88 34.88 0 1 1 0 69.888H454.592c6.272 44.672-9.344 91.328-36.8 114.048-26.048 21.504-59.84 19.52-84.16-4.8-13.504-13.44-40.32-39.68-69.632-68.544V624.768a34.112 34.112 0 0 1 4.48 16.192V741.696c0 8.256 5.76 15.424 12.288 15.424h661.12c6.528 0 12.224-7.168 12.224-15.36v-70.912c-54.4-16-94.4-68.48-94.4-130.624s40-114.56 94.4-130.624zM777.216 664.32h-332.8a34.88 34.88 0 1 1 0-69.824h332.8a34.88 34.88 0 1 1 0 69.888z"  horiz-adv-x="1024" />

    
    <glyph glyph-name="liushuidanguanli" unicode="&#58945;" d="M579.32864 783.744l-400.64 1.664c-18.368-2.304-33.088-6.528-45.312-18.56a63.36 63.36 0 0 1-18.944-45.184L113.60064 528.64c-0.128-35.264 28.416-64.128 63.744-64.32l400.64-1.664h0.256a63.616 63.616 0 0 1 45.12 18.624 63.552 63.552 0 0 1 18.88 45.184l0.832 193.024c0.064 17.088-6.528 33.152-18.56 45.312s-28.16 18.88-45.184 18.944zM578.17664 526.72l-400.576 1.728 0.832 193.024 400.64-1.664-0.896-193.088zM604.99264 302.528H401.92064a32 32 0 1 1 0-64h203.008a32 32 0 1 1 0 64zM604.99264 180.864H401.92064a32 32 0 1 1 0-64h203.008a32 32 0 1 1 0 64zM931.71264 528.832h-152.512a90.24 90.24 0 0 1-26.496-4.352l1.216 268.928C754.11264 848.64 709.44064 895.808 654.27264 896H104.25664C49.28064 896 0.19264 851.584 0.00064 796.544v-821.12c-0.192-55.168 45.248-103.232 100.48-103.424H854.20864c92.096 0 169.408 74.624 169.792 166.912V437.376c0 50.432-41.856 91.52-92.288 91.52z m-856.384-579.2a35.84 35.84 0 0 0-10.56 25.536l3.456 821.12a36.096 36.096 0 0 0 36.032 35.84h0.192l549.568-2.24c9.6 0 18.56-3.84 25.408-10.688a35.84 35.84 0 0 0 10.496-25.472l-1.6-350.72c-0.128-1.92-0.64-3.648-0.64-5.504l-1.28-397.12v-0.128a166.08 166.08 0 0 1 36.544-103.872l-622.272 2.56a35.84 35.84 0 0 0-25.344 10.688z m882.56 89.472a103.872 103.872 0 0 0-103.744-103.296h-0.448a103.872 103.872 0 0 0-103.296 104.192l1.92 400.128a27.2 27.2 0 0 0 26.88 24.704h43.584v-390.4a32 32 0 1 1 64 0v390.4h44.928a27.52 27.52 0 0 0 27.52-27.328l-1.344-398.4zM324.80064 360.32a32.064 32.064 0 0 1-44.096-10.304l-61.056-98.56-62.08 104.96a32 32 0 1 1-55.04-32.64l60.352-102.016h-29.888a32 32 0 1 1 0-64h54.016v-25.088h-54.016a32 32 0 1 1 0-64h54.016v-54.016a32 32 0 1 1 64 0v54.016h53.952a32 32 0 1 1 0 64h-53.952v25.088h53.952a32 32 0 1 1 0 64H276.48064l58.624 94.464a32 32 0 0 1-10.304 44.096z"  horiz-adv-x="1024" />

    
    <glyph glyph-name="renzhengjieguochaxun" unicode="&#58946;" d="M992 559.488a32 32 0 0 1 32 32v128c0 52.928-41.28 96-92.032 96H92.032C41.216 815.488 0 772.416 0 719.488v-128a32 32 0 0 1 32-32c48.512 0 88-43.072 88-96s-39.488-96-88-96a32 32 0 0 1-32-32v-128c0-52.928 41.28-96 92.032-96h400.064c44.352-32.704 98.56-52.672 157.696-52.672s113.408 19.968 157.76 52.672h26.432c-13.696-26.752-10.304-60.032 12.032-82.56l55.36-55.296c13.44-13.44 32.768-22.912 50.368-20.864 19.008 0 36.864 7.424 50.304 20.864 13.44 13.44 20.8 31.232 20.8 50.304a70.4 70.4 0 0 1-20.8 50.304l-42.24 42.24A95.36 95.36 0 0 1 1024 207.488v128a32 32 0 0 1-32 32c-48.512 0-88 43.072-88 96s39.488 96 88 96z m-464.576-394.56c-1.28 1.408-2.816 2.432-4.352 3.584A201.92 201.92 0 0 0 446.784 325.76a203.264 203.264 0 0 0 203.008 203.008c112 0 203.072-91.072 203.072-203.008s-91.072-203.008-203.072-203.008a200.96 200.96 0 0 0-122.368 42.112z m429.44-146.048h-10.176l-55.36 55.296a7.36 7.36 0 0 0-0.064 10.24 7.296 7.296 0 0 0 5.12 1.792c1.92 0 3.84-0.64 5.056-1.792l57.408-60.48a7.04 7.04 0 0 0-2.048-5.056zM960 307.072v-99.584c0-17.344-12.8-32-28.032-32h-61.696c29.12 42.624 46.336 94.016 46.528 149.376 13.312-8 27.712-14.336 43.2-17.792zM845.952 505.6a267.2 267.2 0 0 1-59.264 48.256h23.36v42.24H629.184v-5.376a267.456 267.456 0 0 1-39.04-5.184 907.52 907.52 0 0 1-28.608 24.704l-29.12-27.584 12.224-11.584a268.096 268.096 0 0 1-112.192-91.328 398.528 398.528 0 0 0-6.272 46.528c1.792 28.16 2.112 56.704 2.432 85.248h-46.336c-0.96-99.712 3.136-200.96-75.904-260.48 12.544-8.128 26.688-22.528 34.176-34.496 20.16 16.384 35.2 35.52 47.04 56.448a265.6 265.6 0 0 1-4.8-47.232c0-55.744 17.28-107.52 46.656-150.336H92.032c-15.232 0-28.032 14.656-28.032 32V307.072c68.48 15.488 120 79.744 120 156.416S132.48 604.416 64 619.904V719.488c0 17.28 12.8 32 28.032 32h839.936c15.232 0 28.032-14.72 28.032-32v-99.584c-55.424-12.544-99.2-57.152-114.048-114.24zM295.424 401.92V517.888H208v-43.584h43.584V386.56c0-17.92-11.328-31.36-19.84-37.952 7.296-6.592 18.88-22.208 22.656-31.36 6.272 7.872 17.472 17.6 76.416 61.44a196.736 196.736 0 0 0-13.12 39.168l-22.272-16zM281.28 531.648l31.36 32.576c-12.16 12.544-37.632 32.96-53.184 46.72l-29.824-28.8c16.256-15.36 40.704-37.312 51.648-50.496zM619.52 432.64l-21.376-19.2v63.104c-16-5.504-30.848-13.312-44.16-23.296v-59.2c0-20.992-11.904-37.568-20.672-45.76 7.488-5.632 22.272-20.352 27.2-28.8 6.08 8.448 17.92 19.136 77.184 72.704a212.288 212.288 0 0 0-18.24 40.448zM803.008 369.6h-44.352v72.96c-13.76 12.8-29.44 23.488-46.976 30.848v-103.808h-23.232V480.64a158.848 158.848 0 0 1-38.592 5.248c-2.24 0-4.352-0.576-6.528-0.64v-115.584h-20.736v-42.24h187.072a158.528 158.528 0 0 1-6.656 42.24zM490.88 336.384c4.928 4.928 10.112 9.792 15.488 13.44-4.608 3.392-8.32 7.36-12.416 11.072-1.792-7.936-2.496-16.192-3.072-24.512z"  horiz-adv-x="1024" />

    
    <glyph glyph-name="gouxuanrenzheng" unicode="&#58947;" d="M992 480A32 32 0 0 1 1024 512V640c0 52.928-41.28 96-92.032 96H92.032C41.216 736 0 692.928 0 640v-128a32 32 0 0 1 32-32c48.512 0 88-43.072 88-96S80.512 288 32 288a32 32 0 0 1-32-32v-128c0-52.928 41.28-96 92.032-96h839.936c50.752 0 92.032 43.072 92.032 96v128a32 32 0 0 1-32 32c-48.512 0-88 43.072-88 96s39.488 96 88 96z m-32-252.416V128c0-17.344-12.8-32-28.032-32H92.032C76.8 96 64 110.656 64 128v99.584C132.48 243.072 184 307.328 184 384S132.48 524.928 64 540.416V640c0 17.344 12.8 32 28.032 32h839.936c15.232 0 28.032-14.656 28.032-32v-99.584c-68.48-15.488-120-79.744-120-156.416s51.52-140.928 120-156.416zM426.176 446.848c1.792 28.16 2.112 56.704 2.432 85.248h-46.336c-0.96-99.712 3.136-200.96-75.904-260.48 12.544-8.128 26.688-22.528 34.176-34.432 33.216 26.88 53.568 60.8 66.432 99.008 12.608-36.608 32.96-73.92 66.816-100.288 7.168 11.968 19.712 25.728 32.64 34.496-69.632 50.432-77.824 142.592-80.256 176.448zM317.696 338.368l-22.272-16V438.4H208v-43.584h43.584v-87.744c0-17.92-11.328-31.36-19.84-37.952 7.296-6.592 18.816-22.208 22.656-31.36 6.272 7.872 17.472 17.6 76.416 61.44a196.864 196.864 0 0 0-13.12 39.168zM281.28 452.16l31.36 32.576c-12.16 12.544-37.632 32.96-53.248 46.72l-29.76-28.8c16.256-15.36 40.704-37.312 51.648-50.496zM582.464 451.2l31.04 31.36c-11.264 13.76-35.072 34.176-51.968 48.256l-29.12-27.584c16.896-15.68 40.064-37.632 50.048-52.032zM619.52 353.152l-21.376-19.136v104.32H521.088v-43.52h32.896v-80.256c0-20.992-11.968-37.568-20.672-45.76 7.488-5.632 22.272-20.352 27.2-28.8 6.016 8.448 17.92 19.136 77.184 72.704a212.288 212.288 0 0 0-18.24 40.448zM758.656 368.192h45.44v42.24h-45.44v64h51.392v42.24H629.184v-42.24h82.496v-184.32h-23.232v137.6h-45.12v-137.6h-20.736v-42.24h193.408v42.24h-57.344z"  horiz-adv-x="1024" />

    
    <glyph glyph-name="saomarenzheng" unicode="&#58948;" d="M94.4 551.168a32.064 32.064 0 0 1 32.128 32.064V737.088c0 17.728 14.4 32.128 32.064 32.128h153.856a32.064 32.064 0 1 1 0 64.192H158.592c-53.12 0-96.256-43.2-96.256-96.32v-153.856c0-17.728 14.336-32.064 32.064-32.064zM312.448-1.216H158.592a32.128 32.128 0 0 0-32.064 32.128v153.792a32.064 32.064 0 1 1-64.192 0v-153.792c0-53.12 43.2-96.32 96.256-96.32h153.856a32.064 32.064 0 1 1 0 64.192zM929.024 216.768a32.064 32.064 0 0 1-32.128-32.064v-153.792a32.128 32.128 0 0 0-32.064-32.128h-153.856a32.064 32.064 0 1 1 0-64.192h153.856c53.12 0 96.256 43.2 96.256 96.32v153.792a32.064 32.064 0 0 1-32.064 32.064zM710.976 769.216h153.856c17.664 0 32.064-14.4 32.064-32.128v-153.856a32.064 32.064 0 1 1 64.192 0V737.088c0 53.12-43.2 96.32-96.256 96.32h-153.856a32.064 32.064 0 1 1 0-64.192zM991.872 416.064H32.128a32.064 32.064 0 1 1 0-64.192h959.744a32.064 32.064 0 1 1 0 64.192z"  horiz-adv-x="1024" />

    
    <glyph glyph-name="daikaifapiaoguanli" unicode="&#58949;" d="M785.664 565.184V716.288a95.872 95.872 0 0 1 70.656 92.16V863.168a32 32 0 0 1-32 32H199.68a32 32 0 0 1-32-32v-54.72c0-42.368 27.84-78.08 65.984-90.688V565.12c0-118.656 78.976-155.84 150.656-181.248-71.68-25.408-150.656-62.592-150.656-181.248v-152.576a95.808 95.808 0 0 1-65.92-90.688v-54.72a32 32 0 0 1 32-32h624.576a32 32 0 0 1 32 32v54.72c0 44.096-30.08 80.96-70.656 92.16v151.104c0 118.656-78.976 155.84-150.592 181.248 71.68 25.408 150.592 62.592 150.592 181.248zM297.664 712.448h424v-115.2H297.664v115.2z m-65.92 118.72h560.576v-22.72a32 32 0 0 0-32-32H263.68a32 32 0 0 0-32 32v22.72z m560.576-894.464H231.68v22.72a32 32 0 0 0 32 32h496.64a32 32 0 0 0 32-32v-22.72z m-368.32 118.72c14.4 58.56 64.192 100.416 85.696 112.832 21.504-12.416 71.296-54.272 85.76-112.832h-171.52z m297.664 147.264v-147.264h-61.696c-18.048 104.576-117.504 179.264-150.272 179.264S377.472 160 359.424 55.424h-61.76v147.264c0 75.84 40.832 98.048 127.36 127.744 12.032 4.096 23.04 9.152 33.664 14.72 15.424-15.168 19.584-28.352 19.776-28.928a31.744 31.744 0 0 1 31.36-24.64 32.448 32.448 0 0 1 30.912 24c0.256 0.896 4.48 14.272 19.968 29.504 10.56-5.504 21.632-10.56 33.6-14.72 86.592-29.632 127.36-51.84 127.36-127.68z m-127.36 234.816c-21.12-7.296-38.272-16.192-52.48-25.792-1.6-0.896-2.816-2.048-4.224-3.2-11.072-7.872-20.48-16-27.904-24.128a178.752 178.752 0 0 1-29.44 25.28c-0.64 0.512-1.28 1.088-2.048 1.536a221.632 221.632 0 0 1-53.12 26.24c-72.832 24.96-112.832 45.056-123.904 95.744h416.96c-11.008-50.688-51.008-70.784-123.84-95.68z"  horiz-adv-x="1024" />

    
    <glyph glyph-name="fapiaochaxun" unicode="&#58950;" d="M423.808 896C190.08 896 0 705.92 0 472.192s190.08-423.744 423.808-423.744 423.808 190.08 423.808 423.744S657.472 896 423.808 896z m0-782.4c-197.76 0-358.592 160.896-358.592 358.592s160.896 358.656 358.592 358.656 358.592-160.896 358.592-358.656-160.896-358.592-358.592-358.592zM995.456 38.848l-92.16 92.224a97.92 97.92 0 0 1-138.368-138.304l92.16-92.224c19.072-19.072 44.16-28.544 69.184-28.544s50.048 9.472 69.12 28.48v0.064a98.048 98.048 0 0 1 0 138.304z m-46.08-92.16a32.704 32.704 0 0 0-46.08 0l-92.288 92.16a32.64 32.64 0 0 0 46.08 46.08l92.288-92.16a32.768 32.768 0 0 0 0-46.08zM675.776 506.752a32.64 32.64 0 0 1 32.576 32.576V606.4c0 36.48-28.736 66.176-64 66.176H203.84c-35.392 0-64.064-29.696-64.064-66.176v-67.072c0-18.048 14.592-32.64 32.64-32.64 16.64 0 30.272-15.424 30.272-34.496s-13.632-34.496-30.336-34.496a32.64 32.64 0 0 1-32.64-32.64v-67.072c0-36.48 28.8-66.112 64.128-66.112h440.384c35.328 0 64 29.632 64 66.112V405.12a32.64 32.64 0 0 1-32.512 32.64c-16.704 0-30.336 15.36-30.336 34.432s13.632 34.56 30.336 34.56z m-32.192-128.448l0.704-41.28-439.296 0.96v40.512c36.736 13.952 62.912 50.688 62.912 93.696 0 43.2-26.432 80.128-63.36 93.888l-0.64 41.28h440.384l-1.152-41.408a99.712 99.712 0 0 1-62.912-93.76c0-43.2 26.496-80.064 63.36-93.888zM334.208 500.736H453.76a32.64 32.64 0 1 1 0 65.216H334.208a32.64 32.64 0 1 1 0-65.216zM513.92 443.712H334.272a32.64 32.64 0 1 1 0-65.152l179.776-0.064a32.64 32.64 0 1 1 0 65.216z"  horiz-adv-x="1024" />

    
    <glyph glyph-name="hongzixinxibiaoguanli" unicode="&#58951;" d="M992 480A32 32 0 0 1 1024 512V640c0 52.928-41.28 96-92.032 96H92.032C41.216 736 0 692.928 0 640v-128a32 32 0 0 1 32-32c48.512 0 88-43.072 88-96S80.512 288 32 288a32 32 0 0 1-32-32v-128c0-52.928 41.28-96 92.032-96h839.936c50.752 0 92.032 43.072 92.032 96v128a32 32 0 0 1-32 32c-48.512 0-88 43.072-88 96s39.488 96 88 96z m-32-252.416V128c0-17.344-12.8-32-28.032-32H92.032C76.8 96 64 110.656 64 128v99.584C132.48 243.072 184 307.328 184 384S132.48 524.928 64 540.416V640c0 17.344 12.8 32 28.032 32h839.936c15.232 0 28.032-14.656 28.032-32v-99.584c-68.48-15.488-120-79.744-120-156.416s51.52-140.928 120-156.416zM512 609.28c-123.52 0-224-100.48-224-224 0-59.008 23.36-112.32 60.8-152.384 1.408-2.56 2.688-5.12 4.8-7.296a31.36 31.36 0 0 1 8.704-5.76A222.336 222.336 0 0 1 512 161.28c123.52 0 224 100.48 224 224S635.52 609.28 512 609.28z m0-64c32.896 0 63.488-9.984 88.96-27.072L379.072 296.32A159.04 159.04 0 0 0 352 385.28c0 88.192 71.808 160 160 160z m0-320c-32.192 0-62.08 9.728-87.296 26.24l221.056 221.056c16.512-25.152 26.24-55.04 26.24-87.296 0-88.192-71.808-160-160-160z"  horiz-adv-x="1024" />

    
    <glyph glyph-name="heguichayan" unicode="&#58952;" d="M920.192 162.368c0 101.888 0 241.408-86.4 327.936-62.592 62.464-129.92 81.792-209.472 87.424a95.04 95.04 0 0 1-57.792 59.456V718.656c0 43.84-29.568 80.448-69.696 92.16v20.928h37.568A32.128 32.128 0 1 1 534.4 896H300.288a32.128 32.128 0 1 1 0-64.256h40.064v-20.16A96.32 96.32 0 0 1 268.16 718.72v-349.504c0-5.632 1.856-10.688 4.416-15.36 0.256-0.512 0.192-1.216 0.512-1.728l64.256-102.336a32.128 32.128 0 0 1 27.2-15.04h105.6a32.128 32.128 0 0 1 27.2 15.04l64.256 102.336c0.32 0.512 0.192 1.28 0.512 1.792a31.296 31.296 0 0 1 4.48 15.296v89.6c25.728 9.28 46.336 29.248 56.32 54.72 65.216-4.928 117.12-20.48 165.376-68.672 67.648-67.584 67.648-191.744 67.648-284.8 0-43.52-11.072-115.392-78.656-146.304-18.688 77.44-79.168 146.88-163.136 146.88H181.248a32.128 32.128 0 1 1 0-64.32h432.896c27.008 0 50.56-14.272 68.8-35.136H200.32c-53.184 0-96.448-43.264-96.448-96.384v-60.608c0-17.728 14.4-32.128 32.128-32.128h615.808a32.128 32.128 0 0 1 32.192 32.128v43.904c85.568 29.184 136.256 106.368 136.256 214.336zM503.424 547.968a30.976 30.976 0 1 0 61.952-0.128 30.976 30.976 0 0 0-61.952 0.128zM432.64 831.744v-16.64h-27.968v16.64h27.968zM364.544 750.72h105.6c17.728 0 32.128-14.4 32.128-32.128v-81.472a95.04 95.04 0 0 1-63.104-89.216c0-41.216 26.432-76.032 63.104-89.28v-57.408H332.416V718.72c0 17.728 14.4 32.128 32.128 32.128z m87.808-451.84H382.336L358.4 337.024h117.76l-23.872-38.08z m267.264-362.688H168.064v28.48c0 17.728 14.4 32.128 32.192 32.128h487.232c17.728 0 32.128-14.4 32.128-32.128v-28.48z"  horiz-adv-x="1024" />

    
    </font>
</defs>
</svg>
